<svg width="512" height="512" viewBox="0 0 512 512" fill="none" xmlns="http://www.w3.org/2000/svg">
<path d="M326.363 335.492C323.028 335.066 319.693 334.675 316.358 334.303C309.707 333.575 303.019 332.953 296.278 332.474C282.974 331.497 269.545 331 255.991 331C242.437 331 229.008 331.497 215.704 332.474C208.981 332.971 202.293 333.575 195.624 334.303C192.289 334.675 188.936 335.066 185.619 335.492C175.579 336.788 165.628 338.351 155.767 340.18C145.835 342.026 135.974 344.139 126.238 346.501L134.288 381C143.45 378.905 152.719 377.058 162.043 375.442C171.294 373.844 180.635 372.46 190.066 371.341C193.185 370.968 196.305 370.613 199.443 370.293C205.682 369.654 211.957 369.121 218.25 368.695C230.711 367.843 243.297 367.399 255.991 367.399C268.667 367.399 281.253 367.843 293.732 368.695C300.025 369.121 306.3 369.654 312.539 370.293C315.677 370.613 318.797 370.968 321.916 371.341C331.329 372.477 340.67 373.844 349.94 375.442C359.281 377.058 368.532 378.905 377.712 381L385.762 346.501C376.026 344.121 366.183 342.009 356.233 340.18C346.354 338.351 336.403 336.788 326.363 335.492Z" fill="#3E4B79"/>
<path d="M421.017 197.15C420.855 197.114 420.711 197.096 420.549 197.061C412.108 195.382 403.811 200.649 401.867 209.023C400.967 212.915 401.597 216.789 403.361 220.039C399.923 223.413 396.251 226.52 392.346 229.359C388.098 232.448 383.581 235.179 378.865 237.536C382.069 238.964 384.66 241.393 386.298 244.374C387.306 246.213 387.954 248.266 388.17 250.409C388.314 251.819 388.278 253.266 388.026 254.73C386.496 263.353 378.217 269.102 369.524 267.585L369.506 267.656C358.707 265.764 350.896 256.979 349.834 246.66C349.618 244.535 349.672 242.339 350.068 240.125C350.086 240.071 350.086 240.018 350.104 239.964C351.381 233.037 355.593 227.341 361.227 223.949C356.097 216.361 352.065 208.059 349.312 199.292C355.521 197.739 360.417 192.561 361.245 185.884C362.216 177.974 357.141 170.743 349.618 168.69C348.88 168.494 348.124 168.315 347.332 168.226C346.54 168.137 345.766 168.119 344.992 168.137C340.582 168.244 336.515 170.154 333.653 173.243C331.475 175.6 329.963 178.617 329.531 182.027C329.081 185.634 329.909 189.115 331.655 192.026C333.131 194.49 335.255 196.543 337.847 197.918C335.453 201.81 332.789 205.523 329.855 209.023C326.904 212.576 323.682 215.897 320.244 218.986C323.52 222.271 325.824 226.484 326.742 231.162C326.958 232.251 327.102 233.358 327.156 234.483C327.21 235.429 327.21 236.393 327.138 237.358C327.03 238.929 326.76 240.446 326.364 241.892C325.878 243.696 325.176 245.392 324.312 246.981C319.974 254.926 311.263 260.068 301.58 259.39C292.419 258.747 284.824 253.087 281.35 245.303C280.666 243.785 280.162 242.196 279.82 240.553C279.694 239.911 279.568 239.286 279.478 238.625C279.28 237.125 279.226 235.59 279.352 234.019C279.424 233.037 279.568 232.091 279.748 231.162C279.838 230.734 279.928 230.323 280.036 229.894C281.188 225.342 283.636 221.342 286.965 218.289C290.223 215.29 294.309 213.183 298.808 212.344C288.045 202.827 278.938 191.544 271.937 178.992C269.561 174.761 267.437 170.369 265.565 165.869C264.863 164.191 264.215 162.495 263.585 160.781C268.571 158.103 271.955 152.871 271.955 146.837C271.955 138.32 265.187 131.393 256.692 131.036C256.458 131.018 256.224 131 255.99 131C255.756 131 255.522 131.018 255.288 131.036C246.793 131.411 240.026 138.32 240.026 146.837C240.026 152.854 243.409 158.085 248.395 160.781C247.765 162.495 247.117 164.191 246.415 165.869C244.543 170.369 242.419 174.761 240.044 178.992C233.042 191.526 223.935 202.81 213.172 212.344C217.672 213.183 221.757 215.272 225.015 218.289C228.345 221.36 230.792 225.342 231.944 229.894C232.052 230.305 232.142 230.734 232.232 231.162C232.412 232.091 232.556 233.037 232.628 234.019C232.736 235.59 232.682 237.125 232.502 238.625C232.43 239.268 232.304 239.911 232.16 240.553C231.818 242.196 231.296 243.803 230.63 245.303C227.157 253.087 219.561 258.747 210.4 259.39C200.717 260.068 192.006 254.926 187.668 246.981C186.804 245.392 186.102 243.696 185.616 241.892C185.221 240.428 184.95 238.911 184.843 237.358C184.771 236.393 184.789 235.429 184.825 234.483C184.879 233.358 185.022 232.251 185.238 231.162C186.156 226.484 188.46 222.271 191.736 218.986C188.298 215.897 185.077 212.576 182.125 209.023C179.209 205.523 176.545 201.81 174.134 197.918C176.725 196.543 178.849 194.49 180.325 192.026C182.071 189.115 182.899 185.652 182.449 182.027C182.035 178.617 180.523 175.582 178.345 173.243C175.483 170.154 171.416 168.244 167.006 168.137C166.232 168.119 165.458 168.137 164.666 168.226C163.874 168.315 163.119 168.494 162.381 168.69C154.857 170.726 149.782 177.974 150.754 185.884C151.582 192.561 156.477 197.739 162.687 199.292C159.915 208.059 155.901 216.361 150.772 223.949C156.405 227.341 160.617 233.037 161.913 239.964C161.931 240.018 161.931 240.071 161.949 240.125C162.345 242.339 162.399 244.535 162.183 246.66C161.121 256.961 153.309 265.764 142.51 267.656L142.492 267.585C133.799 269.102 125.52 263.353 123.99 254.73C123.738 253.266 123.702 251.819 123.846 250.409C124.062 248.266 124.71 246.213 125.718 244.374C127.356 241.393 129.947 238.982 133.151 237.536C128.436 235.179 123.918 232.43 119.67 229.359C115.765 226.538 112.093 223.413 108.655 220.039C110.419 216.772 111.049 212.897 110.149 209.023C108.205 200.649 99.8902 195.4 91.467 197.061C91.305 197.096 91.161 197.114 90.999 197.15C82.4138 199.114 77.0503 207.63 79.0301 216.147C81.0099 224.663 89.5951 229.984 98.1804 228.02L101.33 241.571L105.542 259.675L109.681 277.494L117.691 311.952C128.04 309.256 138.497 306.864 149.08 304.757C159.573 302.686 170.174 300.901 180.883 299.419C184.429 298.937 187.992 298.49 191.556 298.062C198.647 297.223 205.793 296.526 212.974 295.973C227.157 294.866 241.501 294.295 255.99 294.295C270.461 294.295 284.806 294.866 299.006 295.973C306.188 296.526 313.315 297.223 320.424 298.062C323.988 298.472 327.552 298.937 331.097 299.419C341.806 300.883 352.407 302.668 362.9 304.757C373.483 306.846 383.941 309.256 394.29 311.952L402.299 277.494L406.439 259.675L410.65 241.571L413.8 228.02C422.403 229.984 430.97 224.681 432.95 216.147C434.984 207.612 429.62 199.114 421.017 197.15Z" fill="#3E4B79"/>
</svg>
