<svg id="Capa_1" data-name="Capa 1" xmlns="http://www.w3.org/2000/svg" viewBox="0 0 390 360"><defs><style>.cls-1{fill:#ceb98d;stroke:#ceb98d;stroke-miterlimit:10;stroke-width:7px;}</style></defs><path class="cls-1" d="M195,17C105.1,17,32,90.1,32,180S105.1,343,195,343,358,269.9,358,180,284.9,17,195,17Zm0,313.88c-83.18,0-150.85-67.67-150.85-150.85S111.82,29.15,195,29.15,345.85,96.82,345.85,180,278.18,330.85,195,330.85Z"/><path class="cls-1" d="M168,130.57,159.37,122l-50.66,50.65a6.08,6.08,0,0,0,0,8.62L159,231.56l8.61-8.62L127.72,183H283.08V170.83H127.72Z"/></svg>