<svg id="Capa_1" data-name="Capa 1" xmlns="http://www.w3.org/2000/svg" viewBox="0 0 462.93 422.97"><defs><style>.cls-1{fill:#ceb98d;}</style></defs><path class="cls-1" d="M376.53,145.71H326.9V97.18a28.14,28.14,0,0,0-28.11-28.11H164.14A28.14,28.14,0,0,0,136,97.18v48.53H86.4A31.4,31.4,0,0,0,55,177.07V386.6A31.4,31.4,0,0,0,86.4,418H376.53A31.4,31.4,0,0,0,407.9,386.6V177.07A31.4,31.4,0,0,0,376.53,145.71ZM144.72,97.18a19.45,19.45,0,0,1,19.42-19.43H298.79a19.45,19.45,0,0,1,19.42,19.43v48.53H296.3v-21.3A28.14,28.14,0,0,0,268.19,96.3H194.75a28.14,28.14,0,0,0-28.11,28.11v21.3H144.72Zm60.11,125.9,15.75-3.58,9.25,40.7L189.4,324.41,139.58,293l40.5-64.33,16.27-3.7a61.69,61.69,0,0,0,10.09,20.42l6.93-5.22A53.15,53.15,0,0,1,204.83,223.08Zm-10.25-6.57-18.18,4.13a4.33,4.33,0,0,0-2.71,1.92l-13,20.65V154.39h64a61.84,61.84,0,0,0-30.14,62.12Zm-19.26-70.8v-21.3A19.45,19.45,0,0,1,194.75,105h73.44a19.44,19.44,0,0,1,19.42,19.43v21.3ZM111.46,409.28H86.4A22.71,22.71,0,0,1,63.71,386.6V177.07A22.72,22.72,0,0,1,86.4,154.39h25.06Zm40.55,0H120.14V154.39H152V257l-22.09,35.08a4.34,4.34,0,0,0,1.36,6L152,311.12Zm150.23,0H160.69V316.59l27.76,17.48a4.34,4.34,0,0,0,2.31.67,4.58,4.58,0,0,0,1-.11,4.31,4.31,0,0,0,2.7-1.92l43.78-69.53a4.39,4.39,0,0,0,.56-3.28,4.6,4.6,0,0,0-.31-.88l-10.38-45.68a4.32,4.32,0,0,0-1.92-2.71,4.37,4.37,0,0,0-3.27-.56l-19.8,4.51a54.72,54.72,0,0,1-.44-6.55,53.7,53.7,0,0,1,53.64-53.64h45.95Zm40.55,0H310.92V154.39h31.87Zm56.43-22.68a22.71,22.71,0,0,1-22.69,22.68H351.47V154.39h25.06a22.72,22.72,0,0,1,22.69,22.68Z"/></svg>