<svg id="Capa_1" data-name="Capa 1" xmlns="http://www.w3.org/2000/svg" viewBox="0 0 462.93 422.97"><defs><style>.cls-1{fill:#ceb98d;}</style></defs><path class="cls-1" d="M433.7,319.61h-4.22v-49.2a18.57,18.57,0,0,0-18.55-18.55H244.65a18.57,18.57,0,0,0-18.55,18.55v49.2h-4.22a18.57,18.57,0,0,0-18.55,18.55v75.13a6.19,6.19,0,0,0,6.19,6.19H446.06a6.19,6.19,0,0,0,6.19-6.19V338.16A18.57,18.57,0,0,0,433.7,319.61Zm-195.22-49.2a6.17,6.17,0,0,1,6.17-6.16H410.93a6.17,6.17,0,0,1,6.17,6.16v49.2H406.8V304.28a18.57,18.57,0,0,0-18.55-18.54h-38a18.57,18.57,0,0,0-18.55,18.54v15.33h-7.76V304.28a18.57,18.57,0,0,0-18.55-18.54h-38a18.57,18.57,0,0,0-18.55,18.54v15.33h-10.3Zm155.93,49.2H344.06V304.28a6.17,6.17,0,0,1,6.16-6.16h38a6.17,6.17,0,0,1,6.16,6.16Zm-82.89,0H261.17V304.28a6.17,6.17,0,0,1,6.16-6.16h38a6.17,6.17,0,0,1,6.16,6.16Zm-95.81,18.55a6.18,6.18,0,0,1,6.17-6.17H433.7a6.18,6.18,0,0,1,6.17,6.17v44.5H215.71ZM439.87,407.1H215.71V395.05H439.87Z"/><path class="cls-1" d="M259.6,199.86V124.73a18.57,18.57,0,0,0-18.54-18.55h-4.23V57a18.57,18.57,0,0,0-18.54-18.55H52A18.57,18.57,0,0,0,33.45,57v49.2H29.23a18.57,18.57,0,0,0-18.55,18.55v75.13a6.19,6.19,0,0,0,6.19,6.19H253.41A6.19,6.19,0,0,0,259.6,199.86ZM118.88,106.18H68.52V90.85a6.17,6.17,0,0,1,6.16-6.16h38a6.18,6.18,0,0,1,6.17,6.16Zm82.89,0H151.41V90.85a6.17,6.17,0,0,1,6.16-6.16h38a6.18,6.18,0,0,1,6.17,6.16ZM45.84,57A6.16,6.16,0,0,1,52,50.82H218.29A6.17,6.17,0,0,1,224.45,57v49.2h-10.3V90.85A18.57,18.57,0,0,0,195.6,72.31h-38A18.57,18.57,0,0,0,139,90.85v15.33h-7.76V90.85a18.57,18.57,0,0,0-18.55-18.54h-38A18.57,18.57,0,0,0,56.13,90.85v15.33H45.84ZM23.07,124.73a6.17,6.17,0,0,1,6.16-6.17H241.06a6.18,6.18,0,0,1,6.16,6.17v44.5H23.07Zm224.15,68.94H23.07v-12H247.22Z"/><path class="cls-1" d="M321.6,237.87H334V94.93a6.19,6.19,0,0,0-6.19-6.19H253.41v12.39H321.6Z"/><path class="cls-1" d="M115.77,223.63H103.39V366.57a6.19,6.19,0,0,0,6.19,6.19H184V360.37H115.77Z"/></svg>