<svg id="Capa_1" data-name="Capa 1" xmlns="http://www.w3.org/2000/svg" viewBox="0 0 462.93 422.97"><defs><style>.cls-1{fill:#ceb98d;}.cls-2{fill:none;}</style></defs><path class="cls-1" d="M119.27,214.52H99.89V361a9.7,9.7,0,0,0,9.69,9.7h77.88V351.26H119.27Z"/><path class="cls-1" d="M318.84,233.1h19.38V75.61a9.7,9.7,0,0,0-9.69-9.69H250.65V85.3h68.19Z"/><rect class="cls-2" x="26.57" y="166.5" width="217.15" height="18.05"/><path class="cls-2" d="M161.57,80.58a2.66,2.66,0,0,0-2.66,2.66V97.07h37.36V83.24a2.67,2.67,0,0,0-2.67-2.66Z"/><path class="cls-2" d="M241.06,116.45H29.23a2.67,2.67,0,0,0-2.66,2.66v28H243.72v-28A2.67,2.67,0,0,0,241.06,116.45Z"/><path class="cls-2" d="M54.63,83.24a22.07,22.07,0,0,1,22.05-22h32a22.07,22.07,0,0,1,22,22V97.07h8.76V83.24a22.07,22.07,0,0,1,22-22h32a22.07,22.07,0,0,1,22.05,22V97.07H221V51.37a2.67,2.67,0,0,0-2.66-2.67H52a2.67,2.67,0,0,0-2.66,2.67v45.7h5.29Z"/><path class="cls-2" d="M76.68,80.58A2.66,2.66,0,0,0,74,83.24V97.07h37.36V83.24a2.67,2.67,0,0,0-2.67-2.66Z"/><path class="cls-1" d="M249.91,98.93a22,22,0,0,0-8.85-1.86h-.73V51.37a22.07,22.07,0,0,0-22-22H52a22.07,22.07,0,0,0-22,22v45.7h-.72a22.07,22.07,0,0,0-22,22v75.14a9.7,9.7,0,0,0,9.69,9.69H253.41a9.7,9.7,0,0,0,9.69-9.69V119.11a22.07,22.07,0,0,0-13-20.1h0l-.2-.08ZM49.34,51.37A2.67,2.67,0,0,1,52,48.7H218.29A2.67,2.67,0,0,1,221,51.37v45.7h-5.3V83.24a22.07,22.07,0,0,0-22.05-22h-32a22.07,22.07,0,0,0-22,22V97.07h-8.76V83.24a22.07,22.07,0,0,0-22-22h-32a22.07,22.07,0,0,0-22.05,22V97.07H49.34ZM196.27,83.24V97.07H158.91V83.24a2.66,2.66,0,0,1,2.66-2.66h32A2.67,2.67,0,0,1,196.27,83.24Zm-84.89,0V97.07H74V83.24a2.66,2.66,0,0,1,2.66-2.66h32A2.67,2.67,0,0,1,111.38,83.24ZM243.72,184.55H26.57V166.5H243.72Zm0-37.43H26.57v-28a2.67,2.67,0,0,1,2.66-2.66H241.06a2.67,2.67,0,0,1,2.66,2.66Z"/><path class="cls-1" d="M442.56,313a22,22,0,0,0-8.86-1.86H433v-45.7a22.07,22.07,0,0,0-22.05-22.05H244.65a22.07,22.07,0,0,0-22.05,22.05v45.7h-.72a22.07,22.07,0,0,0-22,22.05v75.13a9.7,9.7,0,0,0,9.69,9.69H446.06a9.7,9.7,0,0,0,9.69-9.69V333.18a22.07,22.07,0,0,0-13-20.1h0l-.19-.09ZM242,265.43a2.67,2.67,0,0,1,2.67-2.66H410.93a2.67,2.67,0,0,1,2.67,2.66v45.7h-5.3V297.31a22.07,22.07,0,0,0-22.05-22.05h-32a22.07,22.07,0,0,0-22.05,22.05v13.82h-8.76V297.31a22.07,22.07,0,0,0-22.05-22.05h-32a22.07,22.07,0,0,0-22,22.05v13.82H242Zm146.93,31.88v13.82H351.55V297.31a2.68,2.68,0,0,1,2.67-2.67h32A2.67,2.67,0,0,1,388.91,297.31Zm-84.89,0v13.82H266.67V297.31a2.67,2.67,0,0,1,2.66-2.67h32A2.67,2.67,0,0,1,304,297.31ZM436.37,398.62H219.21V380.57H436.37Zm0-37.44H219.21v-28a2.67,2.67,0,0,1,2.67-2.66H433.7a2.67,2.67,0,0,1,2.67,2.66Z"/></svg>