<svg id="Capa_1" data-name="Capa 1" xmlns="http://www.w3.org/2000/svg" viewBox="0 0 462.93 422.97"><defs><style>.cls-1{fill:#ceb98d;}</style></defs><path class="cls-1" d="M231.47,103.78A300,300,0,0,0,35,177l8.12,9.36a287.73,287.73,0,0,1,376.69,0l8.12-9.36A300,300,0,0,0,231.47,103.78Z"/><path class="cls-1" d="M94.59,236.42,102.5,246a201.92,201.92,0,0,1,257.93,0l7.91-9.53a214.29,214.29,0,0,0-273.75,0Z"/><path class="cls-1" d="M154.16,295.46l7.32,10a118.68,118.68,0,0,1,140,0l7.32-10a131.13,131.13,0,0,0-154.61,0Z"/><path class="cls-1" d="M231.47,333.24a43.12,43.12,0,1,0,43.12,43.12A43.17,43.17,0,0,0,231.47,333.24Zm0,73.86a30.74,30.74,0,1,1,30.73-30.74A30.77,30.77,0,0,1,231.47,407.1Z"/></svg>