<svg id="Capa_1" data-name="Capa 1" xmlns="http://www.w3.org/2000/svg" viewBox="0 0 462.93 422.97"><defs><style>.cls-1{fill:#ceb98d;}</style></defs><path class="cls-1" d="M58.19,277.25a33,33,0,1,0,33,33A33.05,33.05,0,0,0,58.19,277.25Zm0,46.65a13.64,13.64,0,1,1,13.63-13.64A13.66,13.66,0,0,1,58.19,323.9Z"/><path class="cls-1" d="M391.92,116.78a33,33,0,1,0-33-33A33.05,33.05,0,0,0,391.92,116.78Zm0-46.65a13.64,13.64,0,1,1-13.64,13.63A13.65,13.65,0,0,1,391.92,70.13Z"/><path class="cls-1" d="M67.75,87.26a33,33,0,1,0-33-33A33.05,33.05,0,0,0,67.75,87.26Zm0-46.65A13.64,13.64,0,1,1,54.11,54.24,13.65,13.65,0,0,1,67.75,40.61Z"/><path class="cls-1" d="M414.2,260.53,374.67,221,361,234.7l39.52,39.54a36.08,36.08,0,0,1-51,51l-14.21-14.21,21.26-132.6h8.67a9.71,9.71,0,0,0,9.7-9.69V136.42a9.71,9.71,0,0,0-9.7-9.7H352.77a41.59,41.59,0,0,0,.84-8.33,42.53,42.53,0,0,0-42.48-42.48,42,42,0,0,0-8.81.93A42.6,42.6,0,0,0,260.9,43.79a41.83,41.83,0,0,0-12.48,1.9,42.43,42.43,0,0,0-78.86,13.7,41,41,0,0,0-4.14-.21,42.68,42.68,0,0,0-40.63,30.53,42.54,42.54,0,0,0-38.93,37H73.94a9.71,9.71,0,0,0-9.69,9.7v32.34a9.7,9.7,0,0,0,9.69,9.69h8.67l37.1,231.4a9.66,9.66,0,0,0,9.57,8.15H309.85a9.65,9.65,0,0,0,9.57-8.15l12.05-75.17,4.29,4.29a55.47,55.47,0,0,0,78.44-78.44ZM128,109a23.42,23.42,0,0,1,3.14.35l.26,0a9.68,9.68,0,0,0,11.1-9A22.81,22.81,0,0,1,175.12,80.8a9.69,9.69,0,0,0,13.65-10.43,24.64,24.64,0,0,1-.42-3.9A23,23,0,0,1,233.79,61a9.69,9.69,0,0,0,14.66,5.86A23,23,0,0,1,284,86.26a21.78,21.78,0,0,1-.32,2.89l-.06.44a9.69,9.69,0,0,0,14.91,9.5,23,23,0,0,1,35.7,19.3,22.66,22.66,0,0,1-1.57,8.33H105.54A23.18,23.18,0,0,1,128,109ZM83.63,146.11H355.5v12.95H83.63Zm149.57,46a13.64,13.64,0,1,1-13.62-13.63A13.65,13.65,0,0,1,233.2,192.08Zm68.39,206.54h-164L102.25,178.45H189.5a33,33,0,0,0,30.07,46.65c.73,0,1.48,0,2.25-.08l92.73,92.74Zm16.75-104.49L241.21,217a33,33,0,0,0,8.43-38.55h87.25Z"/></svg>