<svg id="Capa_1" data-name="Capa 1" xmlns="http://www.w3.org/2000/svg" viewBox="0 0 462.93 422.97"><defs><style>.cls-1{fill:#ceb98d;}</style></defs><path class="cls-1" d="M394.63,135.37H332.14V82.19a17.38,17.38,0,0,0-17.36-17.36H148.16A17.38,17.38,0,0,0,130.8,82.19v53.18H68.3a18.43,18.43,0,0,0-18.41,18.41V399.59A18.43,18.43,0,0,0,68.3,418H394.63A18.43,18.43,0,0,0,413,399.59V153.78A18.43,18.43,0,0,0,394.63,135.37ZM106.25,398.62h-37V154.76h37Zm40.5,0H125.64v-104a9.59,9.59,0,0,0,2.91,2.83l18.2,11.46Zm0-148.29-21.11,33.53V154.76h21.11Zm36.75-22,9.27-2.1a67.26,67.26,0,0,0,9.41,17.29l2.1,2.8,15.44-11.6,4.4,19.36-36.34,57.72-40.7-25.63ZM209,154.76A67.86,67.86,0,0,0,188.66,203c0,1.41.05,2.85.14,4.3l-13.52,3.07a9.63,9.63,0,0,0-6.05,4.29l-3.09,4.91V154.76Zm-28.2-19.39v-18H282.18v18Zm31.14,86.53,4.67-1.06,3.11,13.71-2-2.65A48.36,48.36,0,0,1,211.89,221.9ZM296.8,398.62H166.14V321.1l19.51,12.29a9.82,9.82,0,0,0,7.31,1.25,9.66,9.66,0,0,0,6.06-4.29l43.72-69.44a9.61,9.61,0,0,0,1.24-7.32,10.18,10.18,0,0,0-.4-1.33l-10.27-45.17a9.7,9.7,0,0,0-11.6-7.3L208,202.9a48.27,48.27,0,0,1,48.2-48.14H296.8Zm15.95-263.25H301.57v-20A17.38,17.38,0,0,0,284.21,98H178.72a17.38,17.38,0,0,0-17.36,17.36v20H150.18V84.21H312.75Zm24.54,263.25H316.18V154.76h21.11Zm56.36,0h-37V154.76h37Z"/></svg>