<svg id="Capa_1" data-name="Capa 1" xmlns="http://www.w3.org/2000/svg" viewBox="0 0 462.93 422.97"><defs><style>.cls-1{fill:#ceb98d;}</style></defs><path class="cls-1" d="M148.77,247.38A50.35,50.35,0,1,0,98.41,197,50.4,50.4,0,0,0,148.77,247.38Zm0-88.32a38,38,0,1,1-38,38A38,38,0,0,1,148.77,159.06Z"/><path class="cls-1" d="M235.4,407.1V323.45a63.3,63.3,0,0,0-63.23-63.23h-46.8a63.3,63.3,0,0,0-63.23,63.23V407.1H22.61v12.38H440.32V407.1Zm-12.38,0H74.52V323.45a50.91,50.91,0,0,1,50.85-50.85h17.21v94.08H155V272.6h17.21A50.91,50.91,0,0,1,223,323.45Z"/><path class="cls-1" d="M233.06,76.48a131.06,131.06,0,0,1,167.58,79.16c22.72,63.41-6.6,133-65.79,161.93l17.47-43.52-11.49-4.61-23,57.29a6.19,6.19,0,0,0,3.95,8.24l58.47,17.7,3.59-11.86L341.64,328A143.44,143.44,0,1,0,170,104.64l9.27,8.21A131.29,131.29,0,0,1,233.06,76.48Z"/><path class="cls-1" d="M273.1,110.88V204a6.19,6.19,0,0,0,4.59,6l49.79,13.34,3.21-12-45.21-12.11V110.88Z"/></svg>