<svg id="Capa_1" data-name="Capa 1" xmlns="http://www.w3.org/2000/svg" viewBox="0 0 462.93 422.97"><defs><style>.cls-1{fill:#ceb98d;}</style></defs><path class="cls-1" d="M454.17,376.8a6.19,6.19,0,0,0-5.72-3.82h-73a19.08,19.08,0,0,0,1.26-6.78v-8.77c17.11-15.25,32-28.83,34.92-55.81a46.15,46.15,0,0,0,.52-91.54V179.27a21,21,0,0,0-21-21H212.4a21,21,0,0,0-21,21v72.82c-38.77-8.21-81.32,1.07-112.82,25-26.57,20.2-41.2,47.67-41.2,77.34,0,8.14,2,14.11,5.08,18.53h-28a6.19,6.19,0,0,0-4.38,10.57l34.12,34.12a6.2,6.2,0,0,0,4.38,1.81H414.33a6.18,6.18,0,0,0,4.38-1.81l34.12-34.12A6.19,6.19,0,0,0,454.17,376.8Zm-42-154.18a33.77,33.77,0,0,1,0,66.4ZM203.8,179.27a8.6,8.6,0,0,1,8.6-8.57H391.21a8.59,8.59,0,0,1,8.58,8.57v6h-196Zm0,18.4h196v94.07c0,28.57-13.39,40.49-31.91,57l-1.46,1.3a6.21,6.21,0,0,0-2.08,4.62V366.2a6.78,6.78,0,0,1-6.77,6.78H246a6.8,6.8,0,0,1-6.8-6.78V354.65a6.2,6.2,0,0,0-2.07-4.62l-1.46-1.3c-18.53-16.5-31.91-28.42-31.91-57ZM86.09,287a120.31,120.31,0,0,1,17.19-10.87v25.12h12.38V270.47a130.81,130.81,0,0,1,39.15-8.67v33H167.2V261.59a124,124,0,0,1,24.21,3.19v27c0,33.76,16.36,48.69,35.45,65.69v8.77a19.08,19.08,0,0,0,1.26,6.78H77.83c-18.61,0-28.06-2.86-28.06-18.53C49.77,328.74,62.67,304.78,86.09,287ZM411.77,407.1H51.16L29.43,385.37H433.5Z"/><path class="cls-1" d="M245.16,77.37H370.8a12.11,12.11,0,1,1,0,24.21H317.4a24.52,24.52,0,0,0-24.49,24.49v10.87h12.38V126.07A12.12,12.12,0,0,1,317.4,114h53.4a24.49,24.49,0,1,0,0-49H245.16a12.11,12.11,0,1,1,0-24.21h90.53a24.51,24.51,0,0,0,24.49-24.49V7.76H347.8v8.53A12.12,12.12,0,0,1,335.69,28.4H245.16a24.49,24.49,0,1,0,0,49Z"/></svg>