<svg id="Capa_1" data-name="Capa 1" xmlns="http://www.w3.org/2000/svg" viewBox="0 0 462.93 422.97"><defs><style>.cls-1{fill:#ceb98d;}</style></defs><path class="cls-1" d="M148.77,240.91a53.86,53.86,0,1,0-53.86-53.86A53.92,53.92,0,0,0,148.77,240.91Zm0-88.33a34.47,34.47,0,1,1-34.47,34.47A34.51,34.51,0,0,1,148.77,152.58Z"/><path class="cls-1" d="M238.9,398.62V318.47a66.8,66.8,0,0,0-66.73-66.73h-46.8a66.8,66.8,0,0,0-66.73,66.73v80.15H19.11V418H443.82V398.62ZM125.37,271.12h13.71V365.2h19.38V271.12h13.71a47.4,47.4,0,0,1,47.35,47.35v80.15H78V318.47A47.4,47.4,0,0,1,125.37,271.12Z"/><path class="cls-1" d="M181.85,110.19A127.56,127.56,0,1,1,341.68,305l15.19-37.84-18-7.22-24.31,60.54a9.7,9.7,0,0,0,6.19,12.89l61.82,18.71,5.62-18.55-37.46-11.34A147,147,0,0,0,415.59,145.3a147,147,0,0,0-248.25-48L165,100l14.51,12.85Z"/><path class="cls-1" d="M269.6,102.4V199a9.72,9.72,0,0,0,7.18,9.37L330,222.63l5-18.72-46-12.32V102.4Z"/></svg>