<svg id="Capa_1" data-name="Capa 1" xmlns="http://www.w3.org/2000/svg" viewBox="0 0 462.93 422.97"><defs><style>.cls-1{fill:#ceb98d;}</style></defs><path class="cls-1" d="M394.63,143.85h-66V81.17a13.87,13.87,0,0,0-13.86-13.86H148.16A13.87,13.87,0,0,0,134.3,81.17v62.68h-66a14.93,14.93,0,0,0-14.91,14.91V404.57A14.93,14.93,0,0,0,68.3,419.48H394.63a14.93,14.93,0,0,0,14.91-14.91V158.76A14.93,14.93,0,0,0,394.63,143.85ZM146.68,81.17a1.48,1.48,0,0,1,1.48-1.48H314.78a1.47,1.47,0,0,1,1.47,1.48v62.68H298.07V108.36A13.88,13.88,0,0,0,284.21,94.5H178.72a13.88,13.88,0,0,0-13.86,13.86v35.49H146.68Zm60.51,143.19,12-2.73,8.66,38.09-39,61.9-46.62-29.35,39.06-62,13.76-3.13A63.66,63.66,0,0,0,205,246.42l9.9-7.44A51.5,51.5,0,0,1,207.19,224.36ZM192.55,215l-16.49,3.74a6.24,6.24,0,0,0-3.87,2.74l-9.55,15.18V156.23h55.81A64,64,0,0,0,192.16,208,65.85,65.85,0,0,0,192.55,215Zm-15.3-71.14V108.36a1.48,1.48,0,0,1,1.47-1.48H284.21a1.48,1.48,0,0,1,1.47,1.48v35.49ZM109.75,407.1H68.3a2.52,2.52,0,0,1-2.52-2.53V158.76a2.53,2.53,0,0,1,2.52-2.53h41.45Zm40.5,0H122.14V156.23h28.11V256.32l-21.78,34.59a6.19,6.19,0,0,0,1.94,8.54l19.84,12.49Zm150.05,0H162.64V319.74l24.87,15.66a6.18,6.18,0,0,0,3.3,1,6.49,6.49,0,0,0,1.38-.16,6.15,6.15,0,0,0,3.86-2.74L239.77,264a6.14,6.14,0,0,0,.8-4.67,6.24,6.24,0,0,0-.34-1.06L229.9,212.85a6.19,6.19,0,0,0-7.41-4.67l-17.77,4c-.12-1.41-.18-2.84-.18-4.27a51.78,51.78,0,0,1,51.7-51.72H300.3Zm40.49,0H312.68V156.23h28.11Zm56.36-2.53a2.52,2.52,0,0,1-2.52,2.53H353.18V156.23h41.45a2.53,2.53,0,0,1,2.52,2.53Z"/></svg>