<svg id="Capa_1" data-name="Capa 1" xmlns="http://www.w3.org/2000/svg" viewBox="0 0 462.93 422.97"><defs><style>.cls-1{fill:#ceb98d;}</style></defs><path class="cls-1" d="M148.66,245.65a48.56,48.56,0,1,0-48.55-48.55A48.61,48.61,0,0,0,148.66,245.65Zm0-88.43a39.88,39.88,0,1,1-39.87,39.88A39.93,39.93,0,0,1,148.66,157.22Z"/><path class="cls-1" d="M233.55,409.28V323.67a61.53,61.53,0,0,0-61.46-61.45H125.24a61.52,61.52,0,0,0-61.45,61.45v85.61H22.35V418H440.58v-8.69ZM72.47,323.67a52.83,52.83,0,0,1,52.77-52.77h19.08V367H153V270.9h19.08a52.83,52.83,0,0,1,52.77,52.77v85.61H72.47Z"/><path class="cls-1" d="M232.44,74.65C301.51,49.89,377.85,86,402.6,155c23.61,65.89-8.14,138.36-71.08,166.38l19.23-47.89-8.06-3.23-23,57.37a4.29,4.29,0,0,0,.11,3.49,4.33,4.33,0,0,0,2.66,2.28L381,351.15l2.51-8.31L336.6,328.65c66-30.34,99.13-106.9,74.17-176.55-26.36-73.58-107.68-112-181.26-85.63a141.93,141.93,0,0,0-58.23,39.35l6.5,5.75A133.08,133.08,0,0,1,232.44,74.65Z"/><path class="cls-1" d="M275,110.84v93.23a4.35,4.35,0,0,0,3.22,4.2l49.85,13.36,2.25-8.39-46.64-12.5v-89.9Z"/></svg>