<svg id="Capa_1" data-name="Capa 1" xmlns="http://www.w3.org/2000/svg" viewBox="0 0 462.93 422.97"><defs><style>.cls-1{fill:#ceb98d;}</style></defs><path class="cls-1" d="M430.22,169.4a303.64,303.64,0,0,0-397.51,0l-2.64,2.29,12.7,14.65,2.64-2.29a284.22,284.22,0,0,1,372.11,0l2.65,2.29,12.69-14.65Z"/><path class="cls-1" d="M231.47,178.54A218,218,0,0,0,92.35,228.75L89.66,231l12.39,14.91,2.69-2.24a198.42,198.42,0,0,1,253.45,0l2.69,2.24L373.27,231l-2.69-2.24A218,218,0,0,0,231.47,178.54Z"/><path class="cls-1" d="M231.47,261.77a133.45,133.45,0,0,0-79.37,25.89l-2.83,2.07,11.45,15.64,2.83-2.07a115.21,115.21,0,0,1,135.84,0l2.82,2.07,11.45-15.64-2.82-2.07A133.5,133.5,0,0,0,231.47,261.77Z"/><path class="cls-1" d="M231.47,324.76a46.62,46.62,0,1,0,46.62,46.62A46.67,46.67,0,0,0,231.47,324.76Zm27.23,46.62a27.24,27.24,0,1,1-27.23-27.23A27.27,27.27,0,0,1,258.7,371.38Z"/></svg>