<svg id="Capa_1" data-name="Capa 1" xmlns="http://www.w3.org/2000/svg" viewBox="0 0 462.93 422.97"><defs><style>.cls-1{fill:#ceb98d;}</style></defs><path class="cls-1" d="M457.4,370.49a9.65,9.65,0,0,0-8.95-6H380a22.42,22.42,0,0,0,.24-3.28V354c16-14.26,30.89-28.08,34.57-54.32a49.65,49.65,0,0,0,.87-97.56V174.29a24.48,24.48,0,0,0-24.46-24.45H212.4a24.5,24.5,0,0,0-24.49,24.45v68.57c-38.91-7-80.26,2.79-111.44,26.49C49,290.23,33.89,318.68,33.89,349.47a39.24,39.24,0,0,0,2.7,15H14.48a9.7,9.7,0,0,0-6.85,16.55l34.11,34.12A9.64,9.64,0,0,0,48.6,418H414.33a9.64,9.64,0,0,0,6.86-2.83l34.11-34.12A9.64,9.64,0,0,0,457.4,370.49ZM99.78,277.06v29.68h19.38V267.91a126.72,126.72,0,0,1,32.15-7.3v39.68H170.7v-40a121.75,121.75,0,0,1,17.21,2.33v24.16c0,34.94,17.06,50.85,35.45,67.25v7.2a22.42,22.42,0,0,0,.24,3.28H77.83c-19.28,0-24.56-3.23-24.56-15,0-24.59,12.41-47.56,34.93-64.69A115.92,115.92,0,0,1,99.78,277.06ZM239.5,342.44,238,341.13c-18.5-16.48-30.73-27.37-30.73-54.36V209.19h189v77.58c0,27-12.23,37.88-30.74,54.37l-1.46,1.3a9.71,9.71,0,0,0-3.25,7.23v11.55a3.28,3.28,0,0,1-3.27,3.28H246a3.29,3.29,0,0,1-3.3-3.28V349.67A9.7,9.7,0,0,0,239.5,342.44ZM207.3,189.81V174.29a5.1,5.1,0,0,1,5.1-5.07H391.21a5.09,5.09,0,0,1,5.08,5.07v15.52ZM425.05,383.89l-14.73,14.73H52.61L37.88,383.89Zm-9.38-104.37V222.16a30.27,30.27,0,0,1,0,57.36Z"/><path class="cls-1" d="M245.16,83.86H370.8a8.61,8.61,0,1,1,0,17.21H317.4a28,28,0,0,0-28,28v12.37h19.38V129.06a8.61,8.61,0,0,1,8.61-8.6h53.4a28,28,0,1,0,0-56H245.16a8.61,8.61,0,1,1,0-17.21h90.53a28,28,0,0,0,28-28v-10H344.3v10a8.62,8.62,0,0,1-8.61,8.61H245.16a28,28,0,1,0,0,56Z"/></svg>