<?xml version="1.0" encoding="utf-8"?>
<!-- Generator: Adobe Illustrator 24.3.0, SVG Export Plug-In . SVG Version: 6.00 Build 0)  -->
<svg version="1.1" id="Capa_1" xmlns="http://www.w3.org/2000/svg" xmlns:xlink="http://www.w3.org/1999/xlink" x="0px" y="0px"
	 viewBox="0 0 792.26 688.54" style="enable-background:new 0 0 792.26 688.54;" xml:space="preserve">
<style type="text/css">
	.st0{fill:#FFFFFF;}
</style>
<g>
	<g>
		<path class="st0" d="M442.84,127.95c-1.86-0.24-3.72-0.46-5.58-0.67c-3.71-0.41-7.44-0.76-11.2-1.03
			c-7.42-0.55-14.91-0.83-22.47-0.83c-7.56,0-15.05,0.28-22.47,0.83c-3.75,0.28-7.48,0.62-11.2,1.03c-1.86,0.21-3.73,0.43-5.58,0.67
			c-5.6,0.73-11.15,1.61-16.65,2.64c-5.54,1.04-11.04,2.23-16.47,3.56l4.49,19.43c5.11-1.18,10.28-2.22,15.48-3.13
			c5.16-0.9,10.37-1.68,15.63-2.31c1.74-0.21,3.48-0.41,5.23-0.59c3.48-0.36,6.98-0.66,10.49-0.9c6.95-0.48,13.97-0.73,21.05-0.73
			c7.07,0,14.09,0.25,21.05,0.73c3.51,0.24,7.01,0.54,10.49,0.9c1.75,0.18,3.49,0.38,5.23,0.59c5.25,0.64,10.46,1.41,15.63,2.31
			c5.21,0.91,10.37,1.95,15.49,3.13l4.49-19.43c-5.43-1.34-10.92-2.53-16.47-3.56C453.99,129.56,448.44,128.68,442.84,127.95z"/>
		<path class="st0" d="M495.27,50.49c-0.09-0.02-0.17-0.03-0.26-0.05c-4.69-0.94-9.3,2.01-10.38,6.7c-0.5,2.18-0.15,4.35,0.83,6.17
			c-1.91,1.89-3.95,3.63-6.12,5.22c-2.36,1.73-4.87,3.26-7.49,4.58c1.78,0.8,3.22,2.16,4.13,3.83c0.56,1.03,0.92,2.18,1.04,3.38
			c0.08,0.79,0.06,1.6-0.08,2.42c-0.85,4.83-5.45,8.05-10.28,7.2l-0.01,0.04c-6-1.06-10.34-5.98-10.93-11.76
			c-0.12-1.19-0.09-2.42,0.13-3.66c0.01-0.03,0.01-0.06,0.02-0.09c0.71-3.88,3.05-7.07,6.18-8.97c-2.85-4.25-5.09-8.9-6.62-13.81
			c3.45-0.87,6.17-3.77,6.63-7.51c0.54-4.43-2.28-8.48-6.46-9.63c-0.41-0.11-0.83-0.21-1.27-0.26c-0.44-0.05-0.87-0.06-1.3-0.05
			c-2.45,0.06-4.71,1.13-6.3,2.86c-1.21,1.32-2.05,3.01-2.29,4.92c-0.25,2.02,0.21,3.97,1.18,5.6c0.82,1.38,2,2.53,3.44,3.3
			c-1.33,2.18-2.81,4.26-4.44,6.22c-1.64,1.99-3.43,3.85-5.34,5.58c1.82,1.84,3.1,4.2,3.61,6.82c0.12,0.61,0.2,1.23,0.23,1.86
			c0.03,0.53,0.03,1.07-0.01,1.61c-0.06,0.88-0.21,1.73-0.43,2.54c-0.27,1.01-0.66,1.96-1.14,2.85c-2.41,4.45-7.25,7.33-12.63,6.95
			c-5.09-0.36-9.31-3.53-11.24-7.89c-0.38-0.85-0.66-1.74-0.85-2.66c-0.07-0.36-0.14-0.71-0.19-1.08c-0.11-0.84-0.14-1.7-0.07-2.58
			c0.04-0.55,0.12-1.08,0.22-1.6c0.05-0.24,0.1-0.47,0.16-0.71c0.64-2.55,2-4.79,3.85-6.5c1.81-1.68,4.08-2.86,6.58-3.33
			c-5.98-5.33-11.04-11.65-14.93-18.68c-1.32-2.37-2.5-4.83-3.54-7.35c-0.39-0.94-0.75-1.89-1.1-2.85c2.77-1.5,4.65-4.43,4.65-7.81
			c0-4.77-3.76-8.65-8.48-8.85c-0.13-0.01-0.26-0.02-0.39-0.02c-0.13,0-0.26,0.01-0.39,0.02c-4.72,0.21-8.48,4.08-8.48,8.85
			c0,3.37,1.88,6.3,4.65,7.81c-0.35,0.96-0.71,1.91-1.1,2.85c-1.04,2.52-2.22,4.98-3.54,7.35c-3.89,7.02-8.95,13.34-14.93,18.68
			c2.5,0.47,4.77,1.64,6.58,3.33c1.85,1.72,3.21,3.95,3.85,6.5c0.06,0.23,0.11,0.47,0.16,0.71c0.1,0.52,0.18,1.05,0.22,1.6
			c0.06,0.88,0.03,1.74-0.07,2.58c-0.04,0.36-0.11,0.72-0.19,1.08c-0.19,0.92-0.48,1.82-0.85,2.66c-1.93,4.36-6.15,7.53-11.24,7.89
			h0c-5.38,0.38-10.22-2.5-12.63-6.95c-0.48-0.89-0.87-1.84-1.14-2.85c-0.22-0.82-0.37-1.67-0.43-2.54
			c-0.04-0.54-0.03-1.08-0.01-1.61c0.03-0.63,0.11-1.25,0.23-1.86c0.51-2.62,1.79-4.98,3.61-6.82c-1.91-1.73-3.7-3.59-5.34-5.58
			c-1.62-1.96-3.1-4.04-4.44-6.22c1.44-0.77,2.62-1.92,3.44-3.3c0.97-1.63,1.43-3.57,1.18-5.6c-0.23-1.91-1.07-3.61-2.28-4.92
			c-1.59-1.73-3.85-2.8-6.3-2.86c-0.43-0.01-0.86,0-1.3,0.05c-0.44,0.05-0.86,0.15-1.27,0.26c-4.18,1.14-7,5.2-6.46,9.63
			c0.46,3.74,3.18,6.64,6.63,7.51c-1.54,4.91-3.77,9.56-6.62,13.81c3.13,1.9,5.47,5.09,6.19,8.97c0.01,0.03,0.01,0.06,0.02,0.09
			c0.22,1.24,0.25,2.47,0.13,3.66c-0.59,5.77-4.93,10.7-10.93,11.76l-0.01-0.04c-4.83,0.85-9.43-2.37-10.28-7.2
			c-0.14-0.82-0.16-1.63-0.08-2.42c0.12-1.2,0.48-2.35,1.04-3.38c0.91-1.67,2.35-3.02,4.13-3.83c-2.62-1.32-5.13-2.86-7.49-4.58
			c-2.17-1.58-4.21-3.33-6.12-5.22c0.98-1.83,1.33-4,0.83-6.17c-1.08-4.69-5.7-7.63-10.38-6.7c-0.09,0.02-0.17,0.03-0.26,0.05
			c-4.77,1.1-7.75,5.87-6.65,10.64c1.1,4.77,5.87,7.75,10.64,6.65l1.75,7.59l2.34,10.14l2.3,9.98l4.45,19.3
			c5.75-1.51,11.56-2.85,17.44-4.03c5.83-1.16,11.72-2.16,17.67-2.99c1.97-0.27,3.95-0.52,5.93-0.76c3.94-0.47,7.91-0.86,11.9-1.17
			c7.88-0.62,15.85-0.94,23.9-0.94c8.04,0,16.01,0.32,23.9,0.94c3.99,0.31,7.95,0.7,11.9,1.17c1.98,0.23,3.96,0.49,5.93,0.76
			c5.95,0.82,11.84,1.82,17.67,2.99c5.88,1.17,11.69,2.52,17.44,4.03l4.45-19.3l2.3-9.98l2.34-10.14l1.75-7.59
			c4.78,1.1,9.54-1.87,10.64-6.65C503.03,56.35,500.05,51.59,495.27,50.49z"/>
	</g>
	<g>
		<polygon class="st0" points="240.79,230.1 204.82,230.1 204.82,200.29 193.97,200.29 193.97,270.24 204.82,270.24 204.82,240.03 
			240.79,240.03 240.79,270.24 251.63,270.24 251.63,200.29 240.79,200.29 		"/>
		<path class="st0" d="M327.45,199.06c-20.59,0-36.72,15.9-36.72,36.2c0,20.73,15.7,36.2,36.51,36.2c20.59,0,36.72-15.9,36.72-36.2
			C363.96,214.54,348.26,199.06,327.45,199.06z M352.5,235.47c0,14.86-10.77,26.08-25.05,26.08c-14.4,0-25.26-11.3-25.26-26.28
			c0-15.07,10.77-26.28,25.05-26.28c14.4,0,25.26,11.3,25.26,26.28V235.47z"/>
		<polygon class="st0" points="393.89,210.22 416.74,210.22 416.74,270.24 427.58,270.24 427.58,210.22 450.43,210.22 
			450.43,200.29 393.89,200.29 		"/>
		<polygon class="st0" points="498.62,239.82 534.58,239.82 534.58,230.2 498.62,230.2 498.62,209.81 539.19,209.81 539.19,200.29 
			487.78,200.29 487.78,270.24 539.7,270.24 539.7,260.73 498.62,260.73 		"/>
		<polygon class="st0" points="594.08,260.52 594.08,200.29 583.24,200.29 583.24,270.24 631.78,270.24 631.78,260.52 		"/>
	</g>
	<g>
		<path class="st0" d="M321.19,525.81h-4.15v1.53c0,18.23-14.23,33.35-32.41,34.4h-60.29V451.16h38.27
			c11.22,0.66,20.02,10,20.02,21.26v1.54h4.15v-49.75h-4.15v1.53c0,11.28-8.79,20.61-20.02,21.28h-38.27V336.44h60.29
			c18.18,1.06,32.41,16.16,32.41,34.4v1.53h4.15v-40.08H193.97v4.15h7.11v225.3h-7.11v4.14h127.22V525.81z"/>
		<polygon class="st0" points="592,336.44 599.11,336.44 599.11,561.75 592,561.75 592,565.89 629.48,565.89 629.48,561.75 
			622.37,561.75 622.37,336.44 629.48,336.44 629.48,332.3 592,332.3 		"/>
		<path class="st0" d="M781.54,397.09v-64.25h-4.13v1.54c0,7.29-5.94,13.23-13.23,13.23c-2.69,0-5.27-0.8-7.48-2.31
			c-10.74-8.24-23.62-12.73-37.21-12.98c-0.4-0.01-0.81-0.01-1.22-0.01c-7.99,0-15.8,1.48-23.21,4.4
			c-8.08,3.19-15.31,7.94-21.5,14.12l-0.07,0.07c-6.58,6.6-11.5,14.34-14.66,23.03l-0.15,0.41c-4.32,12.16-0.53,25.95,9.42,34.29
			c0.6,0.5,62.88,52.71,78.7,66.02l-0.01,0.01l3.58,3c0.67,0.59,1.33,1.23,1.97,1.86c9.09,9.09,14.11,21.2,14.11,34.06
			c0,12.87-5.02,24.96-14.11,34.07c-8.65,8.65-20.14,13.64-32.36,14.08c-0.17,0.01-0.35,0.01-0.52,0.01l-0.47,0.01
			c-0.23,0-0.47,0-0.7,0c-0.22,0-0.46,0-0.7,0l-1.03-0.02c-13.25-0.38-25.63-5.03-35.83-13.43l-0.19-0.16
			c-0.27-0.22-0.55-0.46-0.81-0.69l-0.21-0.18c-0.31-0.27-0.62-0.55-0.92-0.82l-0.21-0.19c-0.25-0.22-0.49-0.46-0.74-0.69
			l-0.26-0.25c-0.3-0.29-0.6-0.58-0.9-0.88c-9.46-9.46-15.3-21.48-16.9-34.73c-0.28-2.34-0.42-4.71-0.42-7.08v-1.59h-4.14v64.32
			h4.14v-1.54c0-7.29,5.94-13.22,13.23-13.22c2.75,0,5.41,0.84,7.65,2.43l0.08,0.06c10.52,7.98,23.08,12.39,36.33,12.77l1.07,0.02
			c0,0,0.52,0.01,0.77,0.01c0.25,0,0.49,0,0.77-0.01h0.46c0.2,0,0.4-0.01,0.62-0.02h0.02c16.18-0.47,31.39-7.04,42.85-18.49
			c12.69-12.69,19.4-30.26,18.43-48.19c-1.33-25.27-16.76-39.78-18.52-41.36l-80.9-67.88c-3.9-3.41-9.22-8.7-10.39-15.32
			c-1.56-8.9,1.23-17.21,4.79-20.8l0.06-0.06c5.78-5.78,12.54-10.22,20.08-13.2c6.92-2.73,14.23-4.12,21.7-4.12
			c0.38,0,0.76,0.01,1.14,0.01c12.76,0.25,24.82,4.47,34.88,12.21c0.22,0.17,1.59,1.27,1.97,1.58c0.12,0.11,0.25,0.21,0.37,0.32
			c0.18,0.14,0.36,0.29,0.52,0.45c0.17,0.14,0.33,0.29,0.5,0.45c0.22,0.19,0.44,0.39,0.66,0.59c0.18,0.17,0.37,0.33,0.55,0.51
			c0.12,0.11,0.25,0.23,0.37,0.35c0.29,0.28,0.58,0.56,0.86,0.85c11.17,11.17,17.32,26.01,17.32,41.8v1.53H781.54z"/>
		<path class="st0" d="M468.72,451.27h74.62c-0.44,29.13-10.03,56.52-27.1,77.26c-17.35,21.08-40.47,32.91-65.09,33.32h-2.53
			c-6.06-0.09-16.47-1.68-22.56-3.54c-0.5-4.75-1.3-9.47-2.44-14.13v0c-0.01-0.04-0.01-0.09-0.02-0.13c-0.01,0-0.01,0-0.01,0
			c-0.37-1.48-0.9-3.27-1.34-4.77c0,0,0,0,0,0c0-0.01,0-0.01-0.01-0.02c-0.03-0.09-0.06-0.21-0.09-0.3c-0.01,0-0.01,0-0.02,0
			c-1.27-4.25-2.7-8.47-4.53-12.58l-2.42-5.15c-2.53-5.01-5.46-9.83-8.71-14.28c-1.49-2.07-3.17-4.21-4.97-6.36
			c-11.59-13.67-26.66-24.27-43.41-30.63c-1.06-6.8-1.8-13.7-1.8-20.76c0-29.9,9.63-58.08,27.13-79.32
			c17.39-21.11,40.55-32.94,65.17-33.32h2.36h0.08c19.41,0.29,37.97,7.7,53.66,21.42c15.45,13.5,26.96,32.02,33.3,53.56l0.45,1.48
			h22.5l-0.98-2.75c-3.93-11.13-9.53-21.59-16.64-31.07c-7.04-9.38-15.41-17.63-24.9-24.53c-19.63-14.27-42.85-21.96-67.17-22.25
			l-0.01-0.01l-2.67,0.01c-15.64,0.16-30.78,3.37-45.02,9.52c-13.76,5.94-26.12,14.39-36.72,25.09
			c-10.6,10.71-18.92,23.16-24.73,36.99c-6.01,14.32-9.06,29.52-9.06,45.18c0,5.08,0.44,10.09,1.11,15.06c0,0-0.01,0-0.01,0
			c0.21,1.53,0.53,3.03,0.8,4.54c2.47,0.3,4.98,0.51,7.34,1.01c3.81,0.81,7.54,1.91,11.21,3.15c1.55,0.52,3.02,1.21,4.52,1.85
			c0,0,0,0.01,0,0.01c15.4,6.14,29.38,16.04,40.08,28.67c1.6,1.9,3.2,3.94,4.74,6.06c3.24,4.48,6.15,9.29,8.67,14.33l1.36,2.81
			c1.7,3.68,3.08,7.44,4.31,11.24c0.59,1.82,1.22,3.9,1.7,5.74c5.05,19.29,4.39,39.65-2.25,58.87
			c-8.73,25.27-26.74,45.77-50.69,57.72c-13.43,6.69-35.11,9-56.6,7.38c-108.77-11.9-166.19-128.18-181.98-164.53
			c-3.06-7.04-4.16-10.13-4.02-9.83l-13.21-5.15c6.7-1.18,11.53-3.16,17.75-6.06c9.85-4.6,18.51-11.08,25.72-19.26
			c12.67-14.35,19.64-32.8,19.64-51.96c0-19.16-6.97-37.61-19.64-51.96c-7.21-8.18-15.87-14.66-25.72-19.26
			c-10.19-4.76-19.39-7.22-30.74-7.33c-0.25,0-0.5,0-0.76,0H10.71v4.13h7.11v225.3h-7.11v4.15h37.48v-4.15h-7.11V451.85
			c2.96,7.49,7.44,14.33,13.26,20.14c10.81,10.81,25.07,16.92,40.28,17.35l0.04,0.05c2.18,5.13,4.4,10.09,6.65,14.95
			c83.77,181.13,208.98,171.95,226.7,170.12l-0.01-0.02c7.99-0.43,15.84-1.41,21.9-3.15l0.15-0.05c2.51-0.71,9.13-2.76,16.37-6.26
			l0.62-0.3c0.3-0.15,0.59-0.29,0.88-0.44c24.98-12.46,43.78-33.86,52.91-60.25c4.52-13.06,6.34-26.67,5.63-40.14
			c5.95,0.89,16.64,2.06,22.13,2.12h2.22l0.02,0.01l0.25-0.01c19.68-0.2,39.08-5.41,56.13-15.03c16.53-9.34,30.69-22.74,40.96-38.72
			c0.28-0.42,0.56-0.87,0.9-1.42l0.17-0.27c3.02-4.88,5.69-10.02,7.96-15.29c0.05-0.11,0.09-0.22,0.14-0.32l0.02-0.04
			c0.46-0.93,1.38-1.5,2.42-1.5c1.49,0,2.72,1.21,2.72,2.72v69.34h4.13V447.14h-97.9V451.27z M97.11,485.25c0,0-0.49,0.01-0.74,0.01
			c-14.62,0-28.43-5.68-38.85-15.99c-10.42-10.3-16.26-24.02-16.44-38.61v-94.23h55.29c0.23,0,0.48,0,0.74,0
			c14.47,0.19,26.39,5.93,36.63,16.16c10.25,10.22,16.02,23.82,16.23,38.25v39.98c-0.21,14.47-5.99,28.06-16.23,38.28
			C123.5,479.34,111.58,485.06,97.11,485.25z"/>
	</g>
</g>
</svg>
