<svg width="318" height="101" viewBox="0 0 318 101" fill="none" xmlns="http://www.w3.org/2000/svg">
<path d="M60.5111 100.538C60.5111 100.287 60.8312 99.7621 61.2255 99.3684C61.6199 98.9746 61.94 97.8276 61.94 96.8289C61.94 95.368 62.1971 94.9685 63.2259 94.8201C65.0548 94.5633 64.9462 96.9659 63.0316 99.2371C61.6085 100.926 60.5111 101.491 60.5111 100.538ZM9.30174 97.3254C7.23279 96.4294 6.78699 95.5163 6.78699 92.1779C6.78699 88.0062 10.7191 84.6564 16.0173 84.3197C18.3091 84.1713 18.5034 84.2683 18.5034 85.5409C18.5034 86.2999 18.1834 87.0247 17.789 87.1559C17.3947 87.2872 17.0746 86.9847 17.0746 86.4883C17.0746 85.1985 15.2743 85.3754 13.0167 86.8877C8.85023 89.684 8.78164 95.9215 12.9081 96.321C14.2569 96.4522 14.9256 96.1897 15.4686 95.3223C16.4973 93.6845 17.0746 93.8557 17.0746 95.7903C17.0746 97.0172 16.7431 97.5251 15.7886 97.7819C13.7311 98.3355 11.2107 98.1586 9.30174 97.3254ZM144.544 97.4452C141.172 95.6647 140.863 91.5387 143.966 89.6555C144.904 89.0905 145.51 88.4685 145.315 88.2745C145.121 88.0804 145.121 87.2758 145.321 86.4883C145.784 84.6393 149.179 83.4922 151.528 84.3882C153.305 85.0673 153.494 85.6893 152.225 86.7451C151.511 87.3329 151.076 87.3272 149.922 86.7108C148.687 86.0488 148.362 86.0774 147.55 86.8877C146.544 87.8921 146.493 87.8465 149.573 88.7824C150.916 89.1876 149.91 90.4373 148.19 90.5058C145.361 90.6142 145.184 90.6884 144.801 91.904C143.864 94.8429 149.407 96.6463 151.676 94.141C153.008 92.6744 152.385 92.058 150.459 92.9369C148.699 93.7301 148.064 93.3934 149.064 92.1893C149.813 91.2876 155.877 89.3131 156.374 89.8096C157.003 90.4373 155.934 91.864 154.831 91.864C153.94 91.864 153.671 92.2349 153.671 93.479C153.671 96.8631 148.064 99.2999 144.544 97.4452ZM172.217 97.5936C171.571 97.3368 170.571 96.0642 169.988 94.7802C168.862 92.2806 167.959 91.7271 167.959 93.5304C167.959 94.1296 167.805 95.0313 167.611 95.5278C167.382 96.1213 167.582 96.4294 168.182 96.4294C168.691 96.4294 169.102 96.6862 169.102 97.0001C169.102 97.314 167.651 97.5708 165.873 97.5708C162.85 97.5708 162.696 97.508 163.496 96.5721C163.964 96.0242 164.776 93.576 165.296 91.1336C166.456 85.7179 166.456 85.5866 165.387 85.5866C164.913 85.5866 164.53 85.3298 164.53 85.0159C164.53 84.0572 174.549 84.2912 175.361 85.267C176.532 86.6766 175.829 89.1533 173.892 90.4544L172.109 91.6472L173.195 93.7587C173.789 94.9171 174.783 96.184 175.406 96.5721C176.024 96.9601 176.532 97.468 176.532 97.7077C176.532 98.2727 173.715 98.1985 172.217 97.5936ZM172.469 88.5598C173.166 87.253 172.252 85.5866 170.828 85.5866C169.737 85.5866 169.497 86.0545 168.805 89.4843L168.422 91.3789L170.171 90.4716C171.137 89.9751 172.172 89.1134 172.469 88.5598ZM191.535 97.7648C190.489 97.3425 190.615 94.1467 191.678 94.1467C192.152 94.1467 192.535 94.6546 192.535 95.2881C192.535 96.1669 192.918 96.4294 194.187 96.4294C196.77 96.4294 196.85 94.9685 194.444 91.4817C192.627 88.8451 192.404 88.1889 192.873 86.8592C193.587 84.8276 195.953 83.7148 198.531 84.1941C200.325 84.5308 200.531 84.7591 200.508 86.3627L200.48 88.1546L199.582 86.8706C198.576 85.4382 196.102 85.1358 195.622 86.3855C195.45 86.825 196.233 88.3886 197.353 89.8552C199.479 92.6401 199.605 93.0225 199.028 95.1682C198.439 97.3539 194.181 98.8319 191.535 97.7648ZM232.257 97.4909C229.896 96.087 229.719 94.4834 231.348 89.296C232.24 86.4597 232.291 85.8377 231.628 85.6893C229.645 85.2271 231.125 84.4452 233.971 84.4452C236.903 84.4452 238.087 85.0901 236.36 85.7521C235.949 85.9119 235.035 88.0177 234.332 90.4316C232.908 95.328 233.206 96.4294 235.955 96.4294C238.132 96.4294 239.372 94.803 240.618 90.3118C241.573 86.882 241.601 86.3684 240.836 85.8092C239.452 84.7934 239.818 84.4452 242.259 84.4452C244.733 84.4452 244.968 84.6735 243.756 85.8833C243.322 86.3171 242.516 88.5084 241.967 90.7512C240.687 95.9672 239.315 97.605 235.955 97.9303C234.543 98.0615 232.891 97.8675 232.257 97.4909ZM253.649 97.799C253.158 97.6506 252.186 96.3666 251.5 94.9514C250.129 92.1322 249.386 92.0637 248.997 94.7117C248.826 95.8873 248.986 96.4294 249.5 96.4294C249.917 96.4294 250.26 96.6862 250.26 97.0001C250.26 97.314 248.797 97.5651 246.974 97.5536C244.236 97.5365 243.842 97.4167 244.619 96.8289C245.151 96.4237 245.951 94.1981 246.477 91.6586C246.985 89.2047 247.545 86.9619 247.723 86.6709C247.9 86.3855 247.643 85.9975 247.151 85.8092C245.036 84.9988 246.591 84.4452 250.975 84.4567C256.084 84.4624 256.77 84.6849 257.336 86.494C257.77 87.8864 256.004 90.4544 254.227 91.0194C253.089 91.3789 253.089 91.4018 254.33 93.479C256.33 96.8289 256.81 97.2055 258.17 96.4751C258.822 96.1269 261.194 93.148 263.44 89.8609C267.726 83.5664 269.098 82.5734 269.149 85.7293C269.201 88.9593 270.681 96.0927 271.344 96.3153C273.07 96.8859 271.613 97.5708 268.692 97.5536C265.772 97.5365 265.52 97.4452 266.446 96.7433C267.132 96.2297 267.429 95.3965 267.303 94.3407C267.155 93.0054 266.818 92.6915 265.406 92.5659C263.988 92.4347 263.468 92.76 262.4 94.4206C261.371 96.0242 261.285 96.4294 261.971 96.4294C262.445 96.4294 262.834 96.6862 262.834 97.0001C262.834 97.314 262.097 97.5708 261.199 97.5708C260.302 97.5708 258.433 97.6849 257.056 97.8161C255.678 97.9531 254.141 97.9474 253.649 97.799ZM253.192 89.2161C254.227 88.1204 254.375 87.6068 253.895 86.8478C253.564 86.3113 252.764 85.792 252.129 85.7007C251.203 85.5581 250.895 85.9347 250.58 87.5954C250.369 88.731 250.06 90.0093 249.894 90.4373C249.426 91.6643 251.672 90.8311 253.192 89.2161ZM266.823 90.2947C266.817 89.7468 265.714 88.0234 265.703 88.537C265.697 88.7481 265.537 89.3245 265.343 89.821C265.114 90.4145 265.314 90.7227 265.914 90.7227C266.423 90.7227 266.829 90.5286 266.823 90.2947ZM281.997 93.3763C279.843 90.6599 277.997 88.5142 277.9 88.6169C277.802 88.7139 277.362 90.5115 276.922 92.6116C276.242 95.8473 276.236 96.4294 276.905 96.4294C277.339 96.4294 277.694 96.6862 277.694 97.0001C277.694 97.314 276.625 97.5708 275.322 97.5708C273.104 97.5708 273.001 97.5023 273.824 96.5721C274.636 95.6533 276.551 88.5541 276.551 86.4711C276.551 85.9861 276.168 85.5866 275.693 85.5866C275.219 85.5866 274.836 85.3298 274.836 85.0159C274.836 84.702 275.728 84.4452 276.814 84.4452C278.568 84.4452 279.145 84.8904 282.055 88.4799C285.61 92.8741 285.924 92.8627 286.41 88.2973C286.661 85.9233 286.564 85.5866 285.627 85.5866C285.032 85.5866 284.552 85.3298 284.552 85.0159C284.552 84.702 285.712 84.4452 287.124 84.4452C288.536 84.4452 289.696 84.702 289.696 85.0159C289.696 85.3298 289.347 85.5866 288.924 85.5866C288.376 85.5866 287.941 87.1502 287.45 90.8653C286.353 99.1344 286.513 99.0602 281.997 93.3763ZM20.0237 96.0014C20.8181 95.1397 23.0986 92.058 25.0818 89.1533C27.0707 86.2486 28.9968 83.8746 29.3568 83.8746C29.7569 83.8746 30.3113 86.0146 30.7628 89.3131C31.2658 92.9483 31.883 95.2196 32.6203 96.1612L33.7348 97.5708L30.117 97.5536C26.9907 97.5365 26.6421 97.4338 27.5051 96.7775C28.0823 96.3381 28.5053 95.2652 28.5053 94.2266C28.5053 92.5831 28.3509 92.4347 26.6306 92.4347C25.1218 92.4347 24.5388 92.7942 23.6701 94.2551C22.9271 95.522 22.8014 96.1498 23.2643 96.3039C24.8703 96.8346 23.7101 97.5708 21.2525 97.5708H18.5777L20.0237 96.0014ZM27.9337 89.821C27.9337 89.3245 27.6308 89.0164 27.2536 89.1419C26.1963 89.4957 26.0191 90.7227 27.0307 90.7227C27.5279 90.7227 27.9337 90.3175 27.9337 89.821ZM34.2206 97.2455C34.2206 97.0629 34.5635 96.5778 34.9864 96.1555C35.4037 95.7389 36.1981 93.2964 36.7525 90.7398C37.7298 86.2315 37.7298 86.0545 36.7068 85.2784C35.7752 84.5765 36.3181 84.4795 41.2219 84.4624C46.3485 84.4452 46.7943 84.5308 46.7943 85.5466C46.7943 86.1516 46.4057 87.0304 45.937 87.5041C45.4684 87.972 45.0797 88.8737 45.0797 89.5014C45.0797 90.1349 44.794 91.3732 44.451 92.2521C43.8281 93.8442 43.8166 93.85 43.3251 92.5774C42.9993 91.7271 42.3535 91.2933 41.4162 91.2933C39.7473 91.2933 39.593 91.4931 39.0672 94.2951C38.7357 96.0414 38.8329 96.4294 39.5873 96.4294C40.0902 96.4294 40.5075 96.6862 40.5075 97.0001C40.5075 97.314 39.0901 97.5708 37.364 97.5708C35.638 97.5708 34.2206 97.4224 34.2206 97.2455ZM43.9138 88.9022C45.4798 87.2244 45.3826 86.2543 43.6109 85.8092C41.8677 85.3755 41.239 85.8891 40.536 88.3372C40.0559 90.015 40.1188 90.152 41.3819 90.152C42.1363 90.152 43.2737 89.5927 43.9138 88.9022ZM47.9945 96.6463C48.4175 96.1327 49.3148 93.4391 49.9835 90.6542C50.9551 86.6081 51.0465 85.5866 50.4293 85.5866C50.0006 85.5866 49.652 85.3298 49.652 85.0159C49.652 84.702 50.6693 84.4452 51.9153 84.4452C53.8471 84.4452 54.5215 84.0857 56.4532 82.0199C58.185 80.1709 58.888 79.7543 59.3966 80.2565C60.2539 81.1068 59.7053 81.9742 57.4477 83.3495L55.6531 84.4395L57.8592 84.4452C59.9739 84.4452 60.0482 84.508 59.671 86.0089C59.4538 86.8706 59.0194 87.7323 58.7051 87.9264C58.385 88.1204 58.1736 88.4514 58.225 88.6568C58.2764 88.8623 58.1507 90.0493 57.9392 91.2991C57.522 93.7587 56.8247 94.2608 56.3447 92.4347C56.1446 91.67 55.5674 91.2933 54.59 91.2933C53.3955 91.2933 53.0298 91.6757 52.5382 93.4334C51.7095 96.4237 51.7095 96.4294 53.9385 96.4294C55.1787 96.4294 56.3732 95.9957 57.0819 95.2881C58.6194 93.7529 59.591 93.8214 59.1566 95.4307C58.968 96.1384 58.808 96.9088 58.8022 97.1428C58.8022 97.3767 56.1903 97.5708 53.0126 97.5708C47.7374 97.5708 47.2916 97.4909 47.9945 96.6463ZM56.2246 89.7126C57.8249 88.537 58.3679 87.3043 57.6535 86.4426C56.0532 84.5194 53.6527 86.2543 53.6527 89.3359C53.6527 90.1919 55.2473 90.4316 56.2246 89.7126ZM72.5133 97.1142C72.5133 96.8631 72.7362 96.4123 73.0048 96.1155C73.2792 95.8188 73.9307 93.7758 74.4623 91.5787C74.9881 89.3816 75.5539 87.1331 75.7196 86.5853C75.9139 85.929 75.7082 85.5866 75.1252 85.5866C74.6337 85.5866 74.2279 85.3298 74.2279 85.0159C74.2279 84.6849 76.1197 84.4452 78.7659 84.4452C82.8124 84.4452 83.4068 84.5822 84.1955 85.7121C86.1158 88.4457 84.5098 91.0365 80.229 92.1208C77.92 92.7086 77.3485 93.1081 76.9999 94.4092C76.6569 95.6875 76.7884 96.0356 77.6914 96.2753C79.8804 96.846 78.743 97.5708 75.6568 97.5708C73.9307 97.5708 72.5133 97.3653 72.5133 97.1142ZM80.9434 89.1647C81.6179 88.1261 81.7093 87.5041 81.2692 86.8135C80.2233 85.1529 79.1831 85.792 78.4858 88.5084C77.8514 90.9966 77.8743 91.1278 78.9145 90.8596C79.5203 90.6998 80.4348 89.9351 80.9434 89.1647ZM85.6586 97.2455C85.6586 97.0629 86.0015 96.5778 86.4244 96.1555C87.5332 95.0484 89.4136 85.9804 88.5906 85.7064C86.9445 85.1586 88.2305 84.4452 90.871 84.4452C93.18 84.4452 93.6715 84.5993 93.1971 85.17C92.8656 85.5695 92.0255 88.1489 91.3339 90.9053C90.1051 95.7903 90.1051 95.9272 91.1567 96.7205C92.1283 97.4566 91.9169 97.5365 88.9449 97.5536C87.1389 97.5651 85.6586 97.4224 85.6586 97.2455ZM94.2316 96.943C94.2316 96.5721 95.7119 94.4492 97.5179 92.2293C99.324 90.0093 101.307 87.5611 101.919 86.7964L103.027 85.404L100.587 85.735C99.1754 85.9233 97.8208 86.5054 97.375 87.1046C96.392 88.4571 95.7061 87.7666 96.1748 85.9005C96.5349 84.4681 96.6263 84.4452 101.959 84.4452C104.936 84.4452 107.377 84.6107 107.377 84.8105C107.377 85.0102 105.445 87.5668 103.09 90.4944C100.736 93.4163 98.8039 95.95 98.8039 96.1212C98.8039 96.9773 102.919 96.3153 103.948 95.2881C105.474 93.7644 105.771 93.85 105.559 95.7161L105.376 97.2854L99.804 97.4509C95.8205 97.5651 94.2316 97.4224 94.2316 96.943ZM107.377 96.9944C107.377 96.652 109.291 94.0098 111.623 91.1221C115.733 86.0431 115.824 85.8662 114.401 85.6836C113.549 85.5752 112.246 85.9975 111.326 86.6766C109.583 87.9606 108.96 87.6296 109.469 85.6836C109.777 84.5251 110.132 84.4452 115.161 84.4452C118.11 84.4452 120.522 84.6507 120.522 84.8961C120.522 85.1472 118.59 87.7209 116.236 90.6085C113.881 93.5018 111.949 95.9957 111.949 96.1498C111.949 96.9887 116.087 96.2924 117.093 95.2881C118.619 93.7644 118.916 93.85 118.705 95.7161L118.522 97.2854L112.949 97.4509C109.229 97.5593 107.377 97.4053 107.377 96.9944ZM120.614 96.0014C121.408 95.1397 123.688 92.058 125.672 89.1533C127.661 86.2486 129.587 83.8746 129.947 83.8746C130.347 83.8746 130.901 86.0146 131.353 89.3131C131.856 92.9483 132.473 95.2196 133.21 96.1612L134.325 97.5708L130.707 97.5536C127.581 97.5365 127.232 97.4338 128.095 96.7775C128.672 96.3381 129.095 95.2652 129.095 94.2266C129.095 92.5831 128.941 92.4347 127.22 92.4347C125.712 92.4347 125.129 92.7942 124.26 94.2551C123.517 95.522 123.391 96.1498 123.854 96.3039C125.46 96.8346 124.3 97.5708 121.842 97.5708H119.168L120.614 96.0014ZM128.524 89.821C128.524 88.8109 127.295 88.9878 126.94 90.0436C126.815 90.4202 127.123 90.7227 127.621 90.7227C128.118 90.7227 128.524 90.3175 128.524 89.821ZM177.83 96.5721C178.327 96.0242 179.144 93.7758 179.647 91.5787C180.15 89.3816 180.705 87.1331 180.876 86.5853C181.076 85.929 180.876 85.5866 180.287 85.5866C179.796 85.5866 179.39 85.3298 179.39 85.0159C179.39 84.6792 181.488 84.4452 184.534 84.4452C189.655 84.4452 189.678 84.451 189.678 85.8891C189.678 86.6823 189.358 87.4584 188.963 87.6068C188.569 87.7609 188.18 88.8052 188.1 89.9351C188.02 91.0594 187.706 92.4062 187.397 92.9198C186.906 93.7472 186.791 93.7073 186.477 92.5774C185.911 90.5743 183.065 90.7854 182.568 92.8627C182.362 93.7244 182.059 94.8829 181.899 95.4307C181.453 96.9202 185.088 96.7718 187.06 95.2253C188.849 93.8157 189.392 94.0839 188.878 96.1155C188.517 97.5536 188.449 97.5708 182.722 97.5708C177.241 97.5708 176.978 97.5194 177.83 96.5721ZM186.797 88.9022C188.363 87.2244 188.266 86.2543 186.494 85.8092C184.734 85.3697 184.208 85.8377 183.694 88.2973C183.351 89.9123 183.454 90.152 184.465 90.152C185.105 90.152 186.157 89.5927 186.797 88.9022ZM203.68 97.0001C203.875 96.6862 204.395 96.4294 204.835 96.4294C205.606 96.4294 206.109 95.0769 207.355 89.5813C208.247 85.6437 208.19 85.4097 206.395 85.8548C205.532 86.066 204.206 86.8021 203.457 87.4812L202.086 88.7253L202.469 86.7337C202.846 84.7648 204.538 82.328 204.538 83.7547C204.538 84.6507 214.322 84.7192 215.219 83.8232C216.128 82.9158 216.563 83.9887 216.054 85.8833C215.522 87.875 214.505 88.3258 214.094 86.7508C213.916 86.0774 213.316 85.5866 212.665 85.5866C211.727 85.5866 211.333 86.4027 210.321 90.4145C208.835 96.3324 208.835 96.4294 210.253 96.4294C210.882 96.4294 211.396 96.6862 211.396 97.0001C211.396 97.3254 209.67 97.5708 207.361 97.5708C204.818 97.5708 203.457 97.3596 203.68 97.0001ZM213.682 97.0001C213.682 96.6862 213.899 96.4294 214.168 96.4294C214.436 96.4294 215.888 94.569 217.397 92.292C220.758 87.213 223.352 83.8746 223.93 83.8746C224.17 83.8746 224.804 86.4997 225.336 89.7069C225.896 93.0567 226.696 95.9729 227.227 96.555C228.102 97.5194 227.976 97.5708 224.913 97.5708C221.581 97.5708 221.095 97.2968 222.507 96.2068C223.032 95.8017 223.215 95.0084 223.009 94.004C222.541 91.6757 219.923 91.8069 218.18 94.2494C217.3 95.4821 217.106 96.1441 217.568 96.2981C219.083 96.8003 218.117 97.5708 215.968 97.5708C214.711 97.5708 213.682 97.314 213.682 97.0001ZM222.255 89.5813C222.255 88.9536 222.135 88.44 221.992 88.44C221.844 88.44 221.449 88.9536 221.112 89.5813C220.626 90.4944 220.678 90.7227 221.375 90.7227C221.872 90.7227 222.255 90.2262 222.255 89.5813ZM291.411 97.274C291.411 97.1085 291.999 96.749 292.719 96.4751C293.782 96.0699 294.228 95.1283 295.086 91.4931C295.663 89.0278 296.274 86.6538 296.44 86.2086C296.926 84.9246 293.022 85.9404 291.919 87.3899C290.588 89.1419 290.108 87.8122 291.171 85.2841C291.834 83.6977 292.228 83.321 292.708 83.8004C293.594 84.6849 302.973 84.6564 303.87 83.7604C304.402 83.2297 304.556 83.321 304.55 84.1884C304.539 85.929 303.904 87.8693 303.344 87.8693C303.07 87.8693 302.841 87.5041 302.841 87.0532C302.841 86.0945 300.641 85.2499 300.006 85.9575C299.766 86.2257 299.138 88.2402 298.606 90.4373C298.08 92.6344 297.515 94.8829 297.349 95.4307C297.132 96.1555 297.372 96.4294 298.229 96.4294C298.881 96.4294 299.412 96.6862 299.412 97.0001C299.412 97.3254 297.697 97.5708 295.411 97.5708C293.211 97.5708 291.411 97.4338 291.411 97.274ZM93.2257 71.6165C91.574 71.1485 89.5736 70.3439 88.7849 69.8303C87.2646 68.8316 84.7956 65.7157 85.2071 65.3048C85.3385 65.1736 87.356 65.8698 89.6936 66.8514C94.7974 69.0028 99.0782 69.2596 102.462 67.6218C106.954 65.4475 109.332 62.7368 135.273 30.2882C139.891 24.5073 145.818 17.1913 148.442 14.024L153.208 8.26021L148.156 8.0833C142.052 7.86644 137.034 8.73958 133.953 10.5486C132.696 11.2848 129.352 13.8414 126.523 16.2211C123.694 18.6008 119.568 21.4542 117.344 22.567C113.864 24.3133 112.858 24.5644 109.96 24.416C107.92 24.3076 106.52 23.9595 106.377 23.5257C106.245 23.1263 106.605 22.8124 107.188 22.8124C110.235 22.8124 116.967 18.441 127.615 9.55563C129.787 7.74089 132.987 5.56092 134.725 4.71061C137.6 3.30675 138.703 3.12984 146.778 2.78173C153.66 2.48498 156.437 2.12545 159.049 1.18954C162.65 -0.0944745 167.645 -0.414051 168.274 0.601749C168.737 1.34933 168.982 1.03547 147.367 26.8071C137.76 38.2663 126.512 51.7741 122.374 56.836C114.018 67.0454 111.772 69.2482 108.023 70.9031C104.634 72.3983 97.2779 72.7521 93.2257 71.6165ZM39.5987 69.893C38.6043 68.9001 37.5469 68.4664 36.1124 68.4664C34.9864 68.4664 32.9575 67.9185 31.6087 67.2451L29.1568 66.0182L26.6878 67.1766C21.8469 69.4479 17.9948 70.2868 11.0735 70.555C5.20956 70.789 3.92361 70.6749 2.21473 69.7903C0.460118 68.8772 0.191499 68.4492 0.0371849 66.2864C-0.168567 63.4501 0.414395 62.5485 3.43781 61.0076C6.59839 59.3983 12.7824 59.5296 19.0178 61.3329C21.7326 62.1205 24.2759 62.7596 24.676 62.7596C25.5333 62.7596 54.5557 27.2694 56.6418 23.6684C56.8533 23.2975 52.1953 23.0806 43.1651 23.0464C28.3909 22.9893 26.2191 22.6697 23.8987 20.2101C21.9784 18.1671 21.6354 12.4946 23.2414 9.35591C24.636 6.62238 25.9105 5.42967 28.6481 4.28832C31.2943 3.18692 34.8093 3.16409 37.3812 4.23696C40.1531 5.38972 39.9359 6.26855 37.0382 5.61798C32.746 4.65354 27.4765 7.03325 25.0303 11.0394C23.0757 14.2409 23.9787 18.1272 27.1907 20.3014C28.6653 21.3001 29.9741 21.3857 43.6509 21.3629L58.5108 21.3401L64.2261 15.639C72.7477 7.14739 77.6343 5.03018 88.8077 4.99024C93.3057 4.97882 94.5745 5.19568 97.3236 6.45116C99.9298 7.64387 100.73 8.34581 101.45 10.0635C102.61 12.8313 101.844 15.582 99.1582 18.344C95.3175 22.2988 94.3573 22.5042 79.2631 22.704L65.7178 22.8866L57.8078 32.1201C53.4527 37.2048 45.9427 46.113 41.1133 51.9168C36.2838 57.7206 31.8144 63.0507 31.1858 63.7469L30.037 65.0252L32.1859 65.9212C33.369 66.4119 35.1065 66.7372 36.0495 66.6459C37.4555 66.4975 37.8955 66.0866 38.4957 64.3233C39.353 61.8351 41.4905 58.9875 51.6066 46.8892C63.2545 32.959 65.4149 30.8018 67.7582 30.8018C68.8441 30.8018 70.1929 31.0472 70.7587 31.3497C72.239 32.1429 73.2849 35.0705 72.9077 37.376C72.6105 39.2079 72.6962 39.362 74.0336 39.362C76.5426 39.362 79.3089 37.6214 82.5323 34.009C85.8986 30.2426 86.4645 30.585 84.4527 35.1789C83.7897 36.6969 82.0979 41.6561 80.6977 46.2101C77.4971 56.602 75.0166 61.8066 71.3531 65.807C66.8723 70.7034 62.3972 72.3127 57.7621 70.7034C55.9846 70.0814 54.8244 68.1582 55.7388 67.3535C56.0074 67.1139 57.482 66.5831 59.0251 66.1723C62.3858 65.2649 67.8668 60.4313 71.1759 55.4493C73.3192 52.225 76.6569 44.9831 77.2971 42.1697L77.6285 40.6973L74.3594 41.1425C71.5074 41.5305 70.8673 41.8558 69.3699 43.7276C64.7462 49.5086 48.2517 68.9058 47.0058 70.0357C44.9883 71.8619 41.5019 71.7934 39.5987 69.893ZM47.0001 66.6117C48.406 64.9624 53.5441 58.9475 58.4136 53.2408C67.1866 42.9743 67.2666 42.8488 66.9637 40.5775C66.6723 38.4089 66.7523 38.2549 68.3011 37.9182C69.2042 37.7184 70.2615 37.4559 70.6558 37.3361C71.6732 37.0222 71.5417 35.3958 70.4672 34.9849C69.3756 34.5683 65.392 38.3462 58.3393 46.4954C55.6245 49.6341 51.6809 54.0397 49.572 56.2882C45.3483 60.8022 41.6505 65.9668 41.6505 67.3478C41.6505 68.415 42.7479 69.6077 43.7309 69.6077C44.1253 69.6077 45.5941 68.2609 47.0001 66.6117ZM20.0237 67.3821C24.9503 65.4931 25.1446 64.8426 21.2296 63.4159C12.3194 60.1573 5.70108 60.2943 2.57479 63.7982C1.24312 65.2934 1.67749 67.4505 3.48925 68.3693C5.66679 69.4822 16.1944 68.8487 20.0237 67.3821ZM87.5161 20.5639C93.8315 19.999 97.5693 18.3326 99.0839 15.3994C101.724 10.3089 97.3293 7.01044 88.5734 7.51834C82.3666 7.87786 78.8802 9.62982 72.8391 15.4222C70.1415 18.0073 67.9411 20.3357 67.9411 20.6096C67.9411 21.2374 80.2633 21.2088 87.5161 20.5639ZM124.717 70.4295C124.197 69.077 125.134 67.4791 129.718 61.8808C140.131 49.1661 148.276 38.8712 149.767 36.5371C151.385 33.9976 151.271 32.725 149.482 33.4098C148.962 33.6096 143.538 39.9783 137.44 47.5568C131.336 55.1297 124.637 63.3246 122.557 65.7557C118.905 70.03 117.093 71.1828 117.093 69.2539C117.093 68.3579 142.098 36.7939 146.298 32.3883C148.093 30.4994 148.676 30.2312 150.996 30.2312C153.174 30.2312 153.808 30.4766 154.557 31.6236L155.471 33.0161L157.289 31.909C159.501 30.5622 163.77 30.448 165.548 31.6921C166.976 32.6908 167.279 35.7039 166.159 37.8326C165.336 39.3962 159.038 47.2544 150.208 57.7377C143.664 65.4989 142.503 67.325 144.121 67.325C145.481 67.325 149.064 63.1876 162.936 45.6165C173.006 32.8563 175.675 30.2312 178.556 30.2312C181.002 30.2312 182.819 31.0929 182.819 32.2514C182.819 33.3642 183.054 33.3185 185.545 31.7092C188.54 29.7803 190.929 29.3923 193.067 30.4937C194.033 30.9959 194.827 31.5894 194.833 31.8176C194.833 32.0402 195.062 32.5766 195.33 32.9989C195.719 33.6096 196.302 33.4498 198.193 32.2C201.274 30.1627 205.778 29.6263 207.412 31.1043C209.081 32.6109 208.875 35.761 206.904 38.8198C204.618 42.3637 202.714 44.6521 194.89 53.2522C191.129 57.3839 187.111 61.9892 185.968 63.4901C183.625 66.5546 183.517 68.2723 185.677 68.0212C188.003 67.7587 188.552 67.131 201.726 49.6341C214.419 32.7707 217.094 30.2597 222.358 30.2426C224.57 30.2312 225.233 30.488 226.216 31.732C227.679 33.5982 227.685 33.9976 226.244 36.6741C225.244 38.5402 225.21 38.8655 225.97 39.1565C227.147 39.6074 228.159 38.6772 231.754 33.8207C234.754 29.7689 236.589 28.5477 238.544 29.2953C240.31 29.9744 239.47 32.337 236.412 35.2759C234.772 36.8567 233.594 38.3176 233.794 38.5174C234.543 39.2706 236.663 37.4787 238.589 34.477C241.544 29.8659 244.351 28.4792 245.865 30.876C246.802 32.3598 245.316 35.0876 242.636 36.8225C239.498 38.8541 237.115 41.1082 237.115 42.0384C237.115 42.8431 239.818 43.0656 240.876 42.3466C242.27 41.405 255.976 24.5073 255.976 23.7369C255.976 23.5714 255.061 23.2632 253.947 23.0521C252.489 22.7839 251.969 22.4129 252.101 21.7452C252.238 21.0319 252.964 20.815 255.227 20.815C257.947 20.815 258.33 20.6381 260.199 18.5323C261.308 17.2769 263.571 14.3893 265.223 12.1123C268.035 8.23167 268.361 7.97487 270.384 7.97487C271.578 7.97487 272.55 8.14037 272.55 8.34011C272.55 8.53985 270.733 10.9994 268.515 13.8015C263.297 20.3984 263.257 20.5297 266.246 20.5297C268.212 20.5297 268.601 20.7066 268.435 21.5284C268.269 22.333 267.629 22.5271 265.103 22.5271C263.383 22.5271 261.651 22.7382 261.245 22.995C260.845 23.2575 258.164 26.596 255.284 30.4138C252.403 34.2373 245.676 42.6205 240.333 49.0406C234.995 55.4607 230.257 61.4414 229.816 62.3316C228.936 64.0836 229.211 65.613 230.399 65.613C231.714 65.613 237.201 59.444 248.671 45.0687C260.456 30.2997 262.377 28.5191 266.509 28.5191C268.041 28.5191 268.984 28.9243 270.007 30.0314C271.327 31.4524 271.476 31.4867 272.453 30.6021C273.51 29.6491 277.694 29.2667 277.694 30.1285C277.694 30.3853 275.956 32.6508 273.836 35.1675C247.997 65.8355 249.231 64.2034 250.477 65.8983C251.146 66.8114 251.695 66.372 256.256 61.2702C261.034 55.9229 270.824 44.1385 289.142 21.6711C301.487 6.53677 300.641 7.4042 303.041 7.4042C304.653 7.4042 305.122 7.63247 305.116 8.40288C305.105 8.95072 302.213 12.8713 298.686 17.1057C292.256 24.8269 265.434 59.0674 263.937 61.4642C263.245 62.577 263.263 62.8623 264.063 63.6556C266.057 65.6529 268.692 62.9194 286.993 39.8527C292.725 32.628 293.971 31.3611 296.206 30.5108C300.692 28.7988 303.413 30.1285 303.413 34.0319C303.413 39.4647 300.389 42.7175 290.753 47.6481C284.186 51.0094 281.757 53.2122 277.259 59.9062C274.47 64.055 274.327 64.8369 276.185 65.6815C277.242 66.1608 277.957 66.0809 279.471 65.2991C282.558 63.7184 290.279 55.8773 299.664 44.7834C309.082 33.6609 311.963 29.8374 313.112 26.927C313.86 25.038 315.649 23.3831 316.935 23.3831C319.01 23.3831 317.81 28.3822 315.421 29.6548C313.643 30.6078 313.255 31.8348 311.98 40.5604C309.654 56.4194 305.922 63.5871 297.983 67.3935C293.982 69.311 288.216 69.739 287.61 68.1582C287.153 66.9826 288.867 65.1907 290.868 64.7513C295.091 63.8268 300.561 57.4923 305.402 47.9221C307.539 43.6934 310.568 35.4528 310.134 35.0534C310.054 34.9792 306.642 39.0253 302.555 44.0586C292.868 55.9743 282.243 66.8913 278.837 68.4264C273.99 70.6064 269.692 69.5963 269.692 66.2807C269.692 65.6016 269.555 65.0423 269.389 65.0423C269.224 65.0423 267.801 66.0581 266.223 67.3022C261.885 70.7262 258.285 70.8974 256.078 67.793C255.347 66.7658 255.255 66.7772 253.604 68.1639C250.346 70.9031 246.259 70.6007 246.259 67.6218C246.259 65.8013 246.031 65.8184 243.448 67.8557C239.63 70.8803 235.943 70.8917 234.68 67.89L233.971 66.1894L231.462 68.1867C227.239 71.5366 223.17 70.7319 223.17 66.5432C223.17 64.3404 225.021 61.5327 232.788 51.9853C238.504 44.9546 238.527 44.9089 237.252 44.0643C236.549 43.6021 235.972 42.7347 235.972 42.1469C235.972 40.7373 235.749 40.7772 232.931 42.7175C229.788 44.8861 225.444 49.5257 218.712 57.9089C209.413 69.4879 206.178 72.347 204.217 70.7205C203.08 69.7789 203.68 68.8031 210.139 61.0476C218.117 51.4603 225.936 41.1368 225.524 40.7259C224.638 39.8413 221.135 43.1569 215.545 50.1705C208.458 59.0559 199.371 68.7232 196.908 69.9958C194.936 71.0116 191.764 70.6863 190.243 69.3167C189.318 68.4778 189.078 68.5006 187.311 69.5735C184.991 70.9887 181.002 71.1371 179.716 69.8531C179.224 69.3566 178.819 68.3636 178.819 67.6446C178.819 65.8812 184.008 58.7021 193.673 47.0946C198.056 41.8273 201.806 37.0051 202.006 36.3773C202.223 35.6925 202.017 34.8879 201.48 34.3514C200.674 33.5468 200.36 33.621 198.182 35.1276C195.953 36.6684 187.163 46.775 179.116 57.0529C170.691 67.8044 167.914 70.7491 166.182 70.7491C165.239 70.7491 164.53 70.4409 164.53 70.0357C164.536 68.3465 168.64 62.771 177.653 52.2021C184.414 44.2812 189.849 36.4116 189.575 34.9506C189.306 33.5468 186.969 33.3471 185.551 34.6083C184.905 35.1846 180.373 40.6574 175.475 46.7807C157.215 69.6248 155.134 71.8447 152.819 70.9602C151.796 70.5664 151.699 68.8772 152.608 67.1424C152.968 66.4576 154.98 63.8439 157.077 61.3329C159.181 58.822 163.05 54.0682 165.685 50.7755C168.319 47.4827 172.377 42.5292 174.698 39.7728C177.498 36.4572 178.807 34.4542 178.578 33.855C178.024 32.4169 176.698 33.6952 169.908 42.2153C161.455 52.8128 148.962 67.4334 146.796 69.2482C143.429 72.0787 138.811 70.8404 138.811 67.1024C138.811 64.8312 139.32 64.0836 147.544 54.268C156.7 43.3396 163.507 34.3001 163.221 33.4384C162.924 32.531 160.804 32.3255 159.398 33.0788C158.746 33.4269 156.443 36.0749 154.277 38.9625C149.779 44.9717 135.914 62.6569 131.667 67.7987C129.255 70.7205 128.518 71.2627 126.935 71.2912C125.74 71.3083 124.934 70.9944 124.717 70.4295ZM198.153 66.5204C200.017 65.5559 205.486 59.5353 213.991 49.0634C219.889 41.8102 220.255 41.2109 220.255 38.7913C220.255 36.3602 220.363 36.189 222.255 35.5784C224.381 34.8936 224.941 33.5183 223.227 33.1873C221.375 32.8334 219.677 34.574 211.722 44.9945C207.401 50.6556 202.137 57.2926 200.022 59.735C196.119 64.2548 195.13 65.8698 195.713 66.8057C196.136 67.4905 196.313 67.4677 198.153 66.5204ZM243.15 65.2363C244.442 64.7399 268.344 36.7939 268.726 35.333C268.886 34.711 268.646 33.8321 268.195 33.3813C266.76 31.9546 265.034 33.3756 258.97 40.9827C255.798 44.9546 250.855 51.1578 247.98 54.7702C242.39 61.7952 240.864 64.1806 241.413 65.0594C241.819 65.7157 241.882 65.7214 243.15 65.2363ZM297.326 40.0182C298.44 38.8712 299.761 36.9708 300.247 35.7952C301.087 33.7865 301.081 33.6552 300.115 33.6552C298.686 33.6552 289.696 43.2368 289.696 44.7605C289.696 45.5481 295.371 42.0156 297.326 40.0182Z" fill="white" fill-opacity="0.8"/>
</svg>
