<svg width="38" height="38" viewBox="0 0 38 38" fill="none" xmlns="http://www.w3.org/2000/svg">
<g clip-path="url(#clip0_72_111)">
<path fill-rule="evenodd" clip-rule="evenodd" d="M27.6883 23.2572C27.2092 22.9946 24.8554 21.7243 24.4133 21.5446C23.972 21.3654 23.6503 21.272 23.3059 21.7481C22.9625 22.2236 21.9853 23.2876 21.6896 23.6028C21.1274 24.199 20.0331 23.4148 19.4204 23.0738C18.7155 22.6812 17.7921 22.0766 16.793 21.1161C15.391 19.7682 14.4716 18.1338 14.2048 17.6348C13.7976 16.8728 15.2239 15.9823 15.6621 15.1668C15.6864 15.1218 15.7119 15.0747 15.7393 15.0243C15.9136 14.7042 15.8434 14.4167 15.7306 14.1674C15.617 13.9197 14.7312 11.481 14.3614 10.4888C13.8917 9.22943 11.8148 9.3303 11.0361 10.1193C10.5705 10.5909 9.26541 11.7237 9.17529 14.1259C9.08596 16.5264 10.7472 18.9129 10.9788 19.2469C11.2108 19.5819 14.1519 24.7871 19.0392 26.9279C21.9308 28.1934 24.2366 29.3664 27.0222 27.4734C27.5713 27.1004 28.042 26.6446 28.232 26.1707C28.6806 25.047 28.717 24.0697 28.6028 23.8616C28.488 23.6537 28.1677 23.5186 27.6886 23.257L27.6883 23.2572Z" fill="white"/>
<path fill-rule="evenodd" clip-rule="evenodd" d="M18.9936 34.492H18.9873C16.1779 34.4914 13.423 33.7371 11.0194 32.3107L10.4472 31.9714L4.5222 33.5251L6.10368 27.7503L5.73124 27.1582C4.16448 24.6663 3.33644 21.7858 3.33803 18.8288C3.34121 10.2002 10.3643 3.17977 18.9994 3.17977C23.1808 3.18156 27.1115 4.81158 30.0675 7.76962C33.023 10.7276 34.65 14.6598 34.6486 18.8419C34.6447 27.4715 27.6222 34.4918 18.9932 34.4918L18.9936 34.492ZM32.3173 5.52205C28.7614 1.96318 24.0321 0.0017002 18.9936 -0.000488281C8.61207 -0.000488281 0.162147 8.44566 0.157969 18.828C0.156974 22.1465 1.02421 25.3857 2.67214 28.2413L0 37.9985L9.98544 35.3801C12.7364 36.8798 15.8335 37.671 18.9859 37.6716H18.9936C29.3748 37.6716 37.8251 29.2245 37.8289 18.8429C37.8309 13.8116 35.8732 9.08092 32.3173 5.52205Z" fill="white"/>
</g>
<defs>
<clipPath id="clip0_72_111">
<rect width="38" height="38" fill="white"/>
</clipPath>
</defs>
</svg>
