<svg id="Capa_1" data-name="Capa 1" xmlns="http://www.w3.org/2000/svg" viewBox="0 0 462.93 422.97"><defs><style>.cls-1{fill:#ceb98d;}</style></defs><path class="cls-1" d="M231.46,105.59A298.43,298.43,0,0,0,36,178.47L41.66,185a290,290,0,0,1,379.61,0l5.68-6.55A298.42,298.42,0,0,0,231.46,105.59Z"/><path class="cls-1" d="M95.61,238l5.54,6.67a204.06,204.06,0,0,1,260.63,0l5.54-6.67a212.7,212.7,0,0,0-271.71,0Z"/><path class="cls-1" d="M155.16,297.15l5.13,7a120.69,120.69,0,0,1,142.35,0l5.13-7a129.41,129.41,0,0,0-152.61,0Z"/><path class="cls-1" d="M231.46,335.34a41.32,41.32,0,1,0,41.32,41.31A41.36,41.36,0,0,0,231.46,335.34Zm0,73.94a32.63,32.63,0,1,1,32.64-32.63A32.66,32.66,0,0,1,231.46,409.28Z"/></svg>