<svg id="Capa_1" data-name="Capa 1" xmlns="http://www.w3.org/2000/svg" viewBox="0 0 462.93 422.97"><defs><style>.cls-1{fill:#ceb98d;}</style></defs><path class="cls-1" d="M74,88.69A17.34,17.34,0,1,0,56.65,71.35,17.36,17.36,0,0,0,74,88.69Zm0-26a8.66,8.66,0,1,1-8.66,8.65A8.66,8.66,0,0,1,74,62.7Z"/><path class="cls-1" d="M65.31,282.85A27.7,27.7,0,1,0,93,310.55,27.73,27.73,0,0,0,65.31,282.85Zm0,46.71a19,19,0,1,1,19-19A19,19,0,0,1,65.31,329.56Z"/><path class="cls-1" d="M387,118.21a27.7,27.7,0,1,0-27.7-27.69A27.73,27.73,0,0,0,387,118.21Zm0-46.71a19,19,0,1,1-19,19A19,19,0,0,1,387,71.5Z"/><path class="cls-1" d="M410.65,269.45l-47.29-47.29-6.14,6.14,47.29,47.29a41.49,41.49,0,0,1-58.67,58.67L329.67,318.1l22.45-140h13.26a4.34,4.34,0,0,0,4.34-4.34V141.39a4.34,4.34,0,0,0-4.34-4.34H345.77A37.11,37.11,0,0,0,298,88.63,37.21,37.21,0,0,0,260.94,54a36.83,36.83,0,0,0-15.18,3.29,37.12,37.12,0,0,0-71.48,13.26,35.62,35.62,0,0,0-8.93-1.14A37.12,37.12,0,0,0,128.92,99.9c-.34,0-.68,0-1,0A37.21,37.21,0,0,0,90.72,137h-17a4.34,4.34,0,0,0-4.34,4.34v32.38a4.34,4.34,0,0,0,4.34,4.34H87l37.87,236.2a4.34,4.34,0,0,0,4.29,3.66H310a4.35,4.35,0,0,0,4.29-3.66L328,328.68,339.7,340.4a50.17,50.17,0,0,0,70.95-70.95ZM322.1,310.52l-89.16-89.16a27.62,27.62,0,0,0,6.71-43.25H343.33ZM219.56,178.11a19,19,0,1,1-19,19A19,19,0,0,1,219.56,178.11ZM99.4,137a28.52,28.52,0,0,1,28.49-28.49,29.47,29.47,0,0,1,4.19.44,4.35,4.35,0,0,0,5-4,28.43,28.43,0,0,1,28.3-26.84,28.12,28.12,0,0,1,12,2.74,4.35,4.35,0,0,0,6.12-4.67A28.39,28.39,0,0,1,239,64.63a4.35,4.35,0,0,0,6.57,2.62,28.4,28.4,0,0,1,43.84,23.93,25.66,25.66,0,0,1-.37,3.65l-.06.46a4.33,4.33,0,0,0,6.67,4.24,28.44,28.44,0,0,1,44.06,23.81,28,28,0,0,1-3.63,13.71H99.4Zm-21.3,8.69H361v23.7H78.1ZM306.26,409.28H132.87L95.81,178.11H199.48a27.6,27.6,0,0,0,24.29,46.36L320.4,321.1Z"/></svg>