<svg id="Capa_1" data-name="Capa 1" xmlns="http://www.w3.org/2000/svg" viewBox="0 0 462.93 422.97"><defs><style>.cls-1{fill:#ceb98d;}</style></defs><path class="cls-1" d="M452.73,377.8a4.34,4.34,0,0,0-4-2.67h-76a17.27,17.27,0,0,0,2.33-8.65v-9.62h0c17.39-15.49,32.57-29.1,35.07-56.73a44.34,44.34,0,0,0,.4-88.3v-32.5a19.15,19.15,0,0,0-19.13-19.13h-179a19.16,19.16,0,0,0-19.15,19.13v75.26c-38.9-9-82,.06-113.69,24.18C53.4,298.63,39,325.6,39,354.72c0,9.68,2.93,16.1,7.25,20.41h-32a4.34,4.34,0,0,0-3.07,7.41L45.3,416.7A4.35,4.35,0,0,0,48.37,418H414.56a4.35,4.35,0,0,0,3.07-1.27l34.16-34.16A4.36,4.36,0,0,0,452.73,377.8ZM410.54,220.57a35.65,35.65,0,0,1,0,70.78ZM201.91,179.32a10.47,10.47,0,0,1,10.46-10.45h179a10.46,10.46,0,0,1,10.45,10.45v7.88h-200Zm0,16.56h200v96.05c0,29.43-14.37,42.23-32.57,58.44l-1.47,1.31a4.34,4.34,0,0,0-1.45,3.24v11.56a8.66,8.66,0,0,1-8.65,8.65H246.06a8.67,8.67,0,0,1-8.67-8.65V354.92a4.34,4.34,0,0,0-1.45-3.24l-1.46-1.3c-18.2-16.21-32.57-29-32.57-58.45ZM84.78,285.67A122,122,0,0,1,105,273.27v28.14h8.69v-32A132.54,132.54,0,0,1,156.58,260V295h8.68V259.88a126,126,0,0,1,28,3.63v28.42c0,33.33,16.44,48,35.48,64.93v9.62a17.18,17.18,0,0,0,2.34,8.65H77.63c-19.42,0-29.94-3.26-29.94-20.41C47.69,328.38,60.86,303.85,84.78,285.67Zm328,123.61H50.17L24.69,383.81H438.24Z"/><path class="cls-1" d="M245.17,75.43H371a14,14,0,0,1,0,28H317.5a22.69,22.69,0,0,0-22.66,22.66v10.88h8.69V126.05a14,14,0,0,1,14-14H371a22.66,22.66,0,0,0,0-45.32H245.17a14,14,0,0,1,0-28h90.65a22.69,22.69,0,0,0,22.67-22.66V7.59H349.8v8.54a14,14,0,0,1-14,14H245.17a22.66,22.66,0,1,0,0,45.32Z"/></svg>